<?xml version="1.0" encoding="UTF-8"?>
<!DOCTYPE svg PUBLIC "-//W3C//DTD SVG 1.1//EN" "http://www.w3.org/Graphics/SVG/1.1/DTD/svg11.dtd">
<svg xmlns="http://www.w3.org/2000/svg" version="1.1" width="236px" height="236px" style="shape-rendering:geometricPrecision; text-rendering:geometricPrecision; image-rendering:optimizeQuality; fill-rule:evenodd; clip-rule:evenodd" xmlns:xlink="http://www.w3.org/1999/xlink">
<g><path style="opacity:1" fill="#09014d" d="M 150.5,5.5 C 154.323,6.98903 157.99,8.6557 161.5,10.5C 161.369,11.3764 161.702,12.0431 162.5,12.5C 178.485,19.2868 192.152,29.4534 203.5,43C 201.312,45.1884 199.145,47.3551 197,49.5C 195.155,48.0479 193.655,46.2146 192.5,44C 189.94,43.6162 187.606,42.7829 185.5,41.5C 184.5,41.1667 183.833,40.5 183.5,39.5C 182.415,37.4131 180.749,36.0798 178.5,35.5C 177.224,32.3885 175.057,30.0552 172,28.5C 168.459,27.5738 164.959,26.5738 161.5,25.5C 155.805,23.3341 150.138,21.3341 144.5,19.5C 143.365,17.7868 141.698,17.1201 139.5,17.5C 138.653,16.0337 137.32,15.2004 135.5,15C 114.861,12.6495 94.8605,14.8162 75.5,21.5C 72.4148,21.458 70.0814,20.1247 68.5,17.5C 69.5175,16.1476 70.8508,15.1476 72.5,14.5C 70.8333,12.8333 71.1667,11.8333 73.5,11.5C 79.0466,13.7479 84.7133,14.4145 90.5,13.5C 90.2907,12.914 89.9574,12.414 89.5,12C 86.1182,11.8236 82.7848,11.3236 79.5,10.5C 82.4033,8.64472 85.4033,6.97805 88.5,5.5C 96.6661,5.07544 104.666,4.07544 112.5,2.5C 117.499,2.91682 122.499,3.25015 127.5,3.5C 127.5,4.5 127.5,5.5 127.5,6.5C 129.545,4.9704 132.545,4.30374 136.5,4.5C 140.217,4.42698 143.717,5.09365 147,6.5C 148.385,6.48572 149.551,6.15239 150.5,5.5 Z"/></g>
<g><path style="opacity:1" fill="#0d0444" d="M 150.5,5.5 C 149.551,6.15239 148.385,6.48572 147,6.5C 143.717,5.09365 140.217,4.42698 136.5,4.5C 132.545,4.30374 129.545,4.9704 127.5,6.5C 127.5,5.5 127.5,4.5 127.5,3.5C 122.499,3.25015 117.499,2.91682 112.5,2.5C 104.666,4.07544 96.6661,5.07544 88.5,5.5C 97.7815,2.3456 107.448,1.01227 117.5,1.5C 128.682,1.41964 139.682,2.75298 150.5,5.5 Z"/></g>
<g><path style="opacity:1" fill="#403b67" d="M 127.5,16.5 C 127.5,16.1667 127.5,15.8333 127.5,15.5C 131.616,15.5407 135.616,16.2073 139.5,17.5C 141.698,17.1201 143.365,17.7868 144.5,19.5C 138.799,18.6261 133.132,17.6261 127.5,16.5 Z"/></g>
<g><path style="opacity:1" fill="#f6f5f8" d="M 127.5,16.5 C 133.132,17.6261 138.799,18.6261 144.5,19.5C 150.138,21.3341 155.805,23.3341 161.5,25.5C 167.142,28.7933 172.808,32.1266 178.5,35.5C 179.585,37.5869 181.251,38.9202 183.5,39.5C 183.833,40.5 184.5,41.1667 185.5,41.5C 187.167,43.8333 189.167,45.8333 191.5,47.5C 192.08,49.7488 193.413,51.4154 195.5,52.5C 200.622,57.3876 204.789,63.0543 208,69.5C 210.749,76.3461 213.583,83.0128 216.5,89.5C 216.674,91.861 217.007,94.1944 217.5,96.5C 218.302,108.148 218.635,119.815 218.5,131.5C 217.477,143.273 214.144,154.273 208.5,164.5C 206.755,166.033 205.755,168.033 205.5,170.5C 199.224,179.349 192.224,187.682 184.5,195.5C 179.865,198.147 175.532,201.147 171.5,204.5C 165.761,208.036 159.761,211.036 153.5,213.5C 150.145,213.69 147.145,214.69 144.5,216.5C 143.833,216.5 143.167,216.5 142.5,216.5C 140.708,216.366 139.042,216.699 137.5,217.5C 123.504,218.786 109.504,218.786 95.5,217.5C 94.8333,217.5 94.1667,217.5 93.5,217.5C 91.8984,215.926 89.8984,215.259 87.5,215.5C 85.1016,215.741 83.1016,215.074 81.5,213.5C 79.8984,211.926 77.8984,211.259 75.5,211.5C 73.2018,209.539 70.5351,208.539 67.5,208.5C 66.8333,207.833 66.1667,207.167 65.5,206.5C 65.0269,205.094 64.0269,204.427 62.5,204.5C 59.8021,204.155 57.8021,202.822 56.5,200.5C 55.4154,198.413 53.7488,197.08 51.5,196.5C 50.8333,196.5 50.1667,196.5 49.5,196.5C 43.1958,189.192 36.8625,181.859 30.5,174.5C 28.4967,171.159 26.4967,167.825 24.5,164.5C 16.4416,146.372 12.9416,127.372 14,107.5C 14.4865,101.889 15.6532,96.5556 17.5,91.5C 18.9238,89.4855 19.5905,87.1522 19.5,84.5C 23.1808,74.138 28.1808,64.4713 34.5,55.5C 36.8062,52.5271 39.4728,49.8605 42.5,47.5C 47.801,43.5336 52.801,39.2003 57.5,34.5C 60.1612,31.4977 63.4945,29.4977 67.5,28.5C 72.0382,27.5642 76.0382,25.5642 79.5,22.5C 80.1667,22.5 80.8333,22.5 81.5,22.5C 96.4657,17.8956 111.799,15.8956 127.5,16.5 Z"/></g>
<g><path style="opacity:1" fill="#0a034a" d="M 88.5,5.5 C 85.4033,6.97805 82.4033,8.64472 79.5,10.5C 82.7848,11.3236 86.1182,11.8236 89.5,12C 89.9574,12.414 90.2907,12.914 90.5,13.5C 84.7133,14.4145 79.0466,13.7479 73.5,11.5C 71.1667,11.8333 70.8333,12.8333 72.5,14.5C 70.8508,15.1476 69.5175,16.1476 68.5,17.5C 70.0814,20.1247 72.4148,21.458 75.5,21.5C 74.0998,22.1001 73.0998,23.1001 72.5,24.5C 70.6508,25.593 68.9842,26.9263 67.5,28.5C 63.4945,29.4977 60.1612,31.4977 57.5,34.5C 54.1847,36.8081 50.8514,39.1414 47.5,41.5C 46.448,41.3505 45.448,41.5172 44.5,42C 42.616,44.8845 40.116,47.0512 37,48.5C 35.8822,50.7654 35.0488,53.0987 34.5,55.5C 28.1808,64.4713 23.1808,74.138 19.5,84.5C 19.1667,84.5 18.8333,84.5 18.5,84.5C 16.7121,87.5485 15.2121,90.8818 14,94.5C 11.8842,110.142 12.0509,125.642 14.5,141C 14.2383,144.241 14.0717,147.408 14,150.5C 14.6667,149.833 15.3333,149.167 16,148.5C 18.2778,153.389 20.2778,158.389 22,163.5C 22.6708,164.252 23.5041,164.586 24.5,164.5C 26.4967,167.825 28.4967,171.159 30.5,174.5C 31.0084,176.865 31.6751,179.199 32.5,181.5C 38.2185,184.885 42.5519,189.552 45.5,195.5C 46.6888,196.429 48.0222,196.762 49.5,196.5C 50.1667,196.5 50.8333,196.5 51.5,196.5C 52.5846,198.587 54.2512,199.92 56.5,200.5C 57.8021,202.822 59.8021,204.155 62.5,204.5C 62.9731,205.906 63.9731,206.573 65.5,206.5C 66.1667,207.167 66.8333,207.833 67.5,208.5C 67.3691,209.376 67.7025,210.043 68.5,210.5C 78.446,216.023 89.1126,219.023 100.5,219.5C 113.511,220.777 126.678,220.777 140,219.5C 148.572,217.92 156.739,215.254 164.5,211.5C 166.963,209.333 169.297,207 171.5,204.5C 172.833,204.5 174.167,204.5 175.5,204.5C 177.668,203.821 179.668,202.821 181.5,201.5C 184.923,202.385 186.257,204.385 185.5,207.5C 184.045,205.056 182.379,204.556 180.5,206C 181.138,207.707 181.138,209.54 180.5,211.5C 178.857,211.52 177.524,210.853 176.5,209.5C 173.869,209.594 171.202,209.928 168.5,210.5C 171.196,211.893 173.529,213.56 175.5,215.5C 152.81,229.273 128.144,234.439 101.5,231C 57.5478,222.374 26.7145,197.541 9,156.5C -6.19158,106.42 5.30842,63.5869 43.5,28C 56.5968,16.7849 71.5968,9.28492 88.5,5.5 Z"/></g>
<g><path style="opacity:1" fill="#150f49" d="M 139.5,17.5 C 135.616,16.2073 131.616,15.5407 127.5,15.5C 114.324,14.8044 101.324,15.971 88.5,19C 85.7187,19.5218 83.3854,20.6885 81.5,22.5C 80.8333,22.5 80.1667,22.5 79.5,22.5C 77.1667,23.1667 74.8333,23.8333 72.5,24.5C 73.0998,23.1001 74.0998,22.1001 75.5,21.5C 94.8605,14.8162 114.861,12.6495 135.5,15C 137.32,15.2004 138.653,16.0337 139.5,17.5 Z"/></g>
<g><path style="opacity:1" fill="#a09eb9" d="M 127.5,15.5 C 127.5,15.8333 127.5,16.1667 127.5,16.5C 111.799,15.8956 96.4657,17.8956 81.5,22.5C 83.3854,20.6885 85.7187,19.5218 88.5,19C 101.324,15.971 114.324,14.8044 127.5,15.5 Z"/></g>
<g><path style="opacity:1" fill="#bab8cd" d="M 79.5,22.5 C 76.0382,25.5642 72.0382,27.5642 67.5,28.5C 68.9842,26.9263 70.6508,25.593 72.5,24.5C 74.8333,23.8333 77.1667,23.1667 79.5,22.5 Z"/></g>
<g><path style="opacity:1" fill="#55516d" d="M 106.5,29.5 C 109.187,29.3359 111.854,29.5026 114.5,30C 112.935,33.5547 111.935,37.388 111.5,41.5C 111.167,41.3333 110.833,41.1667 110.5,41C 109.549,37.9433 109.216,34.7766 109.5,31.5C 107.821,31.7148 106.821,31.0481 106.5,29.5 Z"/></g>
<g><path style="opacity:1" fill="#272055" d="M 161.5,25.5 C 164.959,26.5738 168.459,27.5738 172,28.5C 175.057,30.0552 177.224,32.3885 178.5,35.5C 172.808,32.1266 167.142,28.7933 161.5,25.5 Z"/></g>
<g><path style="opacity:1" fill="#534f6d" d="M 120.5,29.5 C 123.572,29.1826 126.572,29.5159 129.5,30.5C 127.257,31.4742 124.924,31.8076 122.5,31.5C 122.5,32.5 122.5,33.5 122.5,34.5C 130.5,35.1667 130.5,35.8333 122.5,36.5C 122.5,37.5 122.5,38.5 122.5,39.5C 124.5,39.5 126.5,39.5 128.5,39.5C 128.5,40.5 128.5,41.5 128.5,42.5C 125.545,41.8413 122.545,41.5079 119.5,41.5C 119.646,37.4809 119.979,33.4809 120.5,29.5 Z"/></g>
<g><path style="opacity:1" fill="#4a4568" d="M 141.5,36.5 C 140.391,32.9711 138.558,32.6378 136,35.5C 135.333,37.5 135.333,39.5 136,41.5C 137.292,42.7911 138.458,42.7911 139.5,41.5C 141.549,41.7058 141.883,42.5391 140.5,44C 137.113,44.8104 134.613,43.6437 133,40.5C 132.153,35.6694 134.153,32.6694 139,31.5C 141.376,31.5428 142.876,32.7095 143.5,35C 143.164,36.0299 142.497,36.5299 141.5,36.5 Z"/></g>
<g><path style="opacity:1" fill="#b9b7cf" d="M 57.5,34.5 C 52.801,39.2003 47.801,43.5336 42.5,47.5C 44.1667,45.5 45.8333,43.5 47.5,41.5C 50.8514,39.1414 54.1847,36.8081 57.5,34.5 Z"/></g>
<g><path style="opacity:1" fill="#49426d" d="M 178.5,35.5 C 180.749,36.0798 182.415,37.4131 183.5,39.5C 181.251,38.9202 179.585,37.5869 178.5,35.5 Z"/></g>
<g><path style="opacity:1" fill="#423f63" d="M 88.5,32.5 C 93.8943,31.5545 95.5609,33.5545 93.5,38.5C 94.8333,39.8333 96.1667,41.1667 97.5,42.5C 97,42.8333 96.5,43.1667 96,43.5C 94.1397,41.7991 91.973,40.7991 89.5,40.5C 89.7852,42.288 89.4519,43.9547 88.5,45.5C 86.6766,41.6982 85.6766,37.6982 85.5,33.5C 86.791,33.7373 87.791,33.404 88.5,32.5 Z"/></g>
<g><path style="opacity:1" fill="#c1c1d7" d="M 88.5,34.5 C 89.8333,34.5 91.1667,34.5 92.5,34.5C 92.6162,37.9103 90.9496,39.2436 87.5,38.5C 87.4326,37.0413 87.7659,35.7079 88.5,34.5 Z"/></g>
<g><path style="opacity:1" fill="#bfbdd2" d="M 141.5,36.5 C 137.419,34.7441 135.919,36.0774 137,40.5C 137.671,41.2524 138.504,41.5858 139.5,41.5C 138.458,42.7911 137.292,42.7911 136,41.5C 135.333,39.5 135.333,37.5 136,35.5C 138.558,32.6378 140.391,32.9711 141.5,36.5 Z"/></g>
<g><path style="opacity:1" fill="#928eac" d="M 150.5,36.5 C 150.573,38.0269 149.906,39.0269 148.5,39.5C 148.427,37.9731 149.094,36.9731 150.5,36.5 Z"/></g>
<g><path style="opacity:1" fill="#272150" d="M 150.5,36.5 C 151.404,37.209 151.737,38.209 151.5,39.5C 150.842,40.3984 150.176,41.3984 149.5,42.5C 148.893,42.3764 148.56,42.0431 148.5,41.5C 148.5,40.8333 148.5,40.1667 148.5,39.5C 149.906,39.0269 150.573,38.0269 150.5,36.5 Z"/></g>
<g><path style="opacity:1" fill="#565372" d="M 151.5,39.5 C 153.269,43.3551 155.436,43.3551 158,39.5C 157.655,43.5393 156.155,47.206 153.5,50.5C 153.266,48.3391 152.933,46.1724 152.5,44C 149.51,43.1531 148.176,44.3198 148.5,47.5C 147.5,47.5 146.5,47.5 145.5,47.5C 145.461,44.911 146.461,42.911 148.5,41.5C 148.56,42.0431 148.893,42.3764 149.5,42.5C 150.176,41.3984 150.842,40.3984 151.5,39.5 Z"/></g>
<g><path style="opacity:1" fill="#484266" d="M 73.5,38.5 C 81.3066,38.1361 83.9733,41.6361 81.5,49C 75.8185,52.0703 72.1518,50.5703 70.5,44.5C 70.9837,42.1992 71.9837,40.1992 73.5,38.5 Z"/></g>
<g><path style="opacity:1" fill="#eae8f4" d="M 74.5,40.5 C 79.9836,40.4809 81.6503,42.9809 79.5,48C 73.7853,48.401 72.1187,45.901 74.5,40.5 Z"/></g>
<g><path style="opacity:1" fill="#0e0747" d="M 161.5,10.5 C 171.358,13.762 180.358,18.5954 188.5,25C 195,31.5 201.5,38 208,44.5C 212.483,50.4737 216.317,56.8071 219.5,63.5C 218.603,62.4019 217.77,62.4019 217,63.5C 214.749,57.172 211.915,57.0053 208.5,63C 209.76,64.113 210.927,64.2797 212,63.5C 213.205,65.5342 213.372,67.5342 212.5,69.5C 211.806,66.4028 210.806,66.0695 209.5,68.5C 210.181,71.8368 211.847,73.5035 214.5,73.5C 213.978,74.6074 213.645,75.7741 213.5,77C 215.05,81.0332 216.05,85.1998 216.5,89.5C 213.583,83.0128 210.749,76.3461 208,69.5C 204.789,63.0543 200.622,57.3876 195.5,52.5C 194.92,50.2512 193.587,48.5846 191.5,47.5C 189.167,45.8333 187.167,43.8333 185.5,41.5C 187.606,42.7829 189.94,43.6162 192.5,44C 193.655,46.2146 195.155,48.0479 197,49.5C 199.145,47.3551 201.312,45.1884 203.5,43C 192.152,29.4534 178.485,19.2868 162.5,12.5C 161.702,12.0431 161.369,11.3764 161.5,10.5 Z"/></g>
<g><path style="opacity:1" fill="#191348" d="M 47.5,41.5 C 45.8333,43.5 44.1667,45.5 42.5,47.5C 39.4728,49.8605 36.8062,52.5271 34.5,55.5C 35.0488,53.0987 35.8822,50.7654 37,48.5C 40.116,47.0512 42.616,44.8845 44.5,42C 45.448,41.5172 46.448,41.3505 47.5,41.5 Z"/></g>
<g><path style="opacity:1" fill="#908dab" d="M 191.5,47.5 C 193.587,48.5846 194.92,50.2512 195.5,52.5C 193.413,51.4154 192.08,49.7488 191.5,47.5 Z"/></g>
<g><path style="opacity:1" fill="#57507b" d="M 127.5,51.5 C 122.111,50.8147 116.777,50.8147 111.5,51.5C 109.167,51.5 106.833,51.5 104.5,51.5C 112.145,48.9965 119.812,48.9965 127.5,51.5 Z"/></g>
<g><path style="opacity:1" fill="#605d7d" d="M 163.5,45.5 C 164.36,49.4338 164.693,53.4338 164.5,57.5C 163.835,55.3021 163.168,52.9688 162.5,50.5C 161.719,51.7366 160.719,52.7366 159.5,53.5C 159.139,50.2184 160.472,47.5517 163.5,45.5 Z"/></g>
<g><path style="opacity:1" fill="#4b4867" d="M 61.5,45.5 C 62.675,45.281 63.675,45.6143 64.5,46.5C 63.5,47.8333 62.5,49.1667 61.5,50.5C 63.6339,50.9019 65.6339,50.9019 67.5,50.5C 66.5,51.8333 65.5,53.1667 64.5,54.5C 65.1667,55.5 65.8333,56.5 66.5,57.5C 66.1667,57.8333 65.8333,58.1667 65.5,58.5C 62.5752,56.1485 60.2419,53.3152 58.5,50C 59.3146,48.3566 60.3146,46.8566 61.5,45.5 Z"/></g>
<g><path style="opacity:1" fill="#39335c" d="M 164.5,57.5 C 164.693,53.4338 164.36,49.4338 163.5,45.5C 163.821,43.9519 164.821,43.2852 166.5,43.5C 166.335,46.5184 166.502,49.5184 167,52.5C 168.529,51.2713 169.696,49.7713 170.5,48C 171.483,47.4092 172.15,47.7425 172.5,49C 170.25,52.4117 167.583,55.2451 164.5,57.5 Z"/></g>
<g><path style="opacity:1" fill="#1d154f" d="M 104.5,51.5 C 106.833,51.5 109.167,51.5 111.5,51.5C 107.131,52.5293 103.464,54.8626 100.5,58.5C 98.7859,57.3915 98.1192,58.0582 98.5,60.5C 93.621,61.0967 89.9543,63.43 87.5,67.5C 89.4002,63.2679 92.0669,59.6012 95.5,56.5C 97.756,53.5947 100.756,51.928 104.5,51.5 Z"/></g>
<g><path style="opacity:1" fill="#3d385c" d="M 175.5,53.5 C 177.028,53.5173 177.528,54.184 177,55.5C 174.984,57.684 172.817,59.684 170.5,61.5C 169.479,60.9984 169.312,60.3317 170,59.5C 172.04,57.6298 173.873,55.6298 175.5,53.5 Z"/></g>
<g><path style="opacity:1" fill="#c3c2db" d="M 141.5,54.5 C 140.761,54.369 140.094,54.5357 139.5,55C 141.37,57.0396 143.37,58.8729 145.5,60.5C 151.567,70.5611 152.9,81.2277 149.5,92.5C 147.595,95.3037 145.929,98.3037 144.5,101.5C 143.596,102.209 143.263,103.209 143.5,104.5C 147.833,104.5 152.167,104.5 156.5,104.5C 167.599,107.214 175.932,113.547 181.5,123.5C 182.578,126.402 183.244,129.402 183.5,132.5C 182.833,135.5 182.167,138.5 181.5,141.5C 182.674,131.541 179.674,123.208 172.5,116.5C 170.037,114.539 167.703,112.372 165.5,110C 162.512,109.783 159.845,108.783 157.5,107C 148.144,105.493 139.477,106.993 131.5,111.5C 129.589,112.075 127.922,113.075 126.5,114.5C 125.448,112.744 123.781,112.077 121.5,112.5C 126.217,110.645 130.883,108.478 135.5,106C 138.667,103.82 141.001,100.986 142.5,97.5C 145.675,95.0078 147.341,91.6744 147.5,87.5C 148.65,82.6842 148.816,77.6842 148,72.5C 147.392,70.9336 146.558,69.6002 145.5,68.5C 144.955,66.4068 144.122,64.4068 143,62.5C 140.271,59.6007 137.438,56.934 134.5,54.5C 136.017,54.5106 137.184,55.1772 138,56.5C 138.483,55.552 138.649,54.552 138.5,53.5C 139.791,53.2627 140.791,53.596 141.5,54.5 Z"/></g>
<g><path style="opacity:1" fill="#2b2257" d="M 141.5,54.5 C 144.937,56.017 148.27,57.6837 151.5,59.5C 151.5,59.8333 151.5,60.1667 151.5,60.5C 149.309,59.7093 147.309,59.7093 145.5,60.5C 143.37,58.8729 141.37,57.0396 139.5,55C 140.094,54.5357 140.761,54.369 141.5,54.5 Z"/></g>
<g><path style="opacity:1" fill="#2a2157" d="M 90.5,54.5 C 91.3764,54.3691 92.0431,54.7025 92.5,55.5C 87.3226,60.2031 83.9892,65.8698 82.5,72.5C 82.0323,68.8687 82.699,65.5354 84.5,62.5C 83.8333,62.1667 83.1667,61.8333 82.5,61.5C 77.2417,63.2416 72.5751,65.9083 68.5,69.5C 74.4883,62.5075 81.8216,57.5075 90.5,54.5 Z"/></g>
<g><path style="opacity:1" fill="#0f084c" d="M 133.5,54.5 C 133.833,54.5 134.167,54.5 134.5,54.5C 137.438,56.934 140.271,59.6007 143,62.5C 144.122,64.4068 144.955,66.4068 145.5,68.5C 147.182,74.6799 147.848,81.0133 147.5,87.5C 147.341,91.6744 145.675,95.0078 142.5,97.5C 142.461,96.4168 142.127,95.4168 141.5,94.5C 136.88,93.5067 132.214,93.1734 127.5,93.5C 127.483,91.4352 127.15,89.4352 126.5,87.5C 126.833,87.5 127.167,87.5 127.5,87.5C 131.634,88.4849 135.968,88.8182 140.5,88.5C 140.5,87.1667 140.5,85.8333 140.5,84.5C 137.167,84.5 133.833,84.5 130.5,84.5C 130.5,83.1667 130.5,81.8333 130.5,80.5C 133.5,80.5 136.5,80.5 139.5,80.5C 139.715,78.8212 139.048,77.8212 137.5,77.5C 136.391,76.71 135.058,76.21 133.5,76C 136.051,75.9977 138.051,75.1644 139.5,73.5C 140.833,72.5 140.833,71.5 139.5,70.5C 134.934,69.2027 130.267,69.2027 125.5,70.5C 120.833,70.5 116.167,70.5 111.5,70.5C 110.298,71.4054 108.964,71.4054 107.5,70.5C 106.833,70.5 106.167,70.5 105.5,70.5C 104.432,69.5655 103.099,69.2322 101.5,69.5C 104.908,68.9797 108.241,67.9797 111.5,66.5C 116.132,65.6717 120.798,65.1717 125.5,65C 127.54,62.8149 128.874,60.3149 129.5,57.5C 131.199,57.6602 132.866,57.4935 134.5,57C 133.748,56.3292 133.414,55.4959 133.5,54.5 Z"/></g>
<g><path style="opacity:1" fill="#7d7998" d="M 151.5,60.5 C 151.5,60.1667 151.5,59.8333 151.5,59.5C 153.027,59.427 154.027,60.0937 154.5,61.5C 153.391,61.4431 152.391,61.1098 151.5,60.5 Z"/></g>
<g><path style="opacity:1" fill="#a6a4be" d="M 159.5,64.5 C 163.167,66.1667 165.833,68.8333 167.5,72.5C 164.5,70.1667 161.833,67.5 159.5,64.5 Z"/></g>
<g><path style="opacity:1" fill="#454162" d="M 54.5,68.5 C 54.44,69.0431 54.1067,69.3764 53.5,69.5C 50.3007,66.9429 46.634,65.9429 42.5,66.5C 43.9179,64.6921 45.9179,64.0254 48.5,64.5C 48.4809,62.9397 48.1476,61.4397 47.5,60C 47.8499,58.7425 48.5165,58.4092 49.5,59C 50.5134,62.5641 52.1801,65.7307 54.5,68.5 Z"/></g>
<g><path style="opacity:1" fill="#c0bed1" d="M 42.5,66.5 C 46.634,65.9429 50.3007,66.9429 53.5,69.5C 54.1067,69.3764 54.44,69.0431 54.5,68.5C 55.404,69.209 55.7373,70.209 55.5,71.5C 51.1706,69.7009 46.8372,68.0343 42.5,66.5 Z"/></g>
<g><path style="opacity:1" fill="#4c486b" d="M 178.5,68.5 C 179.263,69.2679 180.263,69.7679 181.5,70C 179.866,70.4935 178.199,70.6602 176.5,70.5C 173.936,64.6801 175.603,61.0134 181.5,59.5C 186.032,60.0061 187.699,62.3395 186.5,66.5C 185.275,61.7419 182.608,60.5752 178.5,63C 177.193,64.9435 177.193,66.7768 178.5,68.5 Z"/></g>
<g><path style="opacity:1" fill="#524d7a" d="M 101.5,69.5 C 103.099,69.2322 104.432,69.5655 105.5,70.5C 103.097,70.448 100.764,70.7814 98.5,71.5C 98.9731,70.0937 99.9731,69.427 101.5,69.5 Z"/></g>
<g><path style="opacity:1" fill="#3d3a67" d="M 139.5,70.5 C 135.298,70.1832 131.298,70.5166 127.5,71.5C 126.512,76.6405 126.179,81.9738 126.5,87.5C 125.833,87.5 125.5,87.1667 125.5,86.5C 125.5,82.5 125.5,78.5 125.5,74.5C 123.833,74.5 122.167,74.5 120.5,74.5C 120.5,74.1667 120.5,73.8333 120.5,73.5C 121.833,73.5 123.167,73.5 124.5,73.5C 125.404,72.791 125.737,71.791 125.5,70.5C 130.267,69.2027 134.934,69.2027 139.5,70.5 Z"/></g>
<g><path style="opacity:1" fill="#0a024c" d="M 82.5,72.5 C 81.8356,75.1459 81.5022,77.9792 81.5,81C 81.2857,85.1327 81.9524,88.966 83.5,92.5C 84.8139,95.1279 86.1473,97.7946 87.5,100.5C 83.427,102.135 79.0937,103.135 74.5,103.5C 62.5585,107.295 54.2252,114.961 49.5,126.5C 48.3467,120.347 48.18,114.014 49,107.5C 49.6667,106.833 50.3333,106.167 51,105.5C 51.3333,102.5 51.6667,99.5 52,96.5C 52.2602,94.3825 53.2602,92.7158 55,91.5C 55.4935,89.8659 55.6602,88.1992 55.5,86.5C 58.6217,84.8743 60.2883,82.2076 60.5,78.5C 62.4302,74.8998 65.0969,71.8998 68.5,69.5C 72.5751,65.9083 77.2417,63.2416 82.5,61.5C 83.1667,61.8333 83.8333,62.1667 84.5,62.5C 82.699,65.5354 82.0323,68.8687 82.5,72.5 Z"/></g>
<g><path style="opacity:1" fill="#b0aecf" d="M 111.5,70.5 C 116.167,70.5 120.833,70.5 125.5,70.5C 125.737,71.791 125.404,72.791 124.5,73.5C 122.952,72.2057 120.952,71.5391 118.5,71.5C 116.048,71.5391 114.048,72.2057 112.5,73.5C 111.596,72.791 111.263,71.791 111.5,70.5 Z"/></g>
<g><path style="opacity:1" fill="#a8a5c7" d="M 127.5,71.5 C 131.298,70.5166 135.298,70.1832 139.5,70.5C 140.833,71.5 140.833,72.5 139.5,73.5C 135.971,71.5772 131.971,70.9106 127.5,71.5 Z"/></g>
<g><path style="opacity:1" fill="#d4d4e5" d="M 105.5,70.5 C 106.167,70.5 106.833,70.5 107.5,70.5C 109.436,72.2432 109.77,74.2432 108.5,76.5C 106.754,74.1459 104.421,73.1459 101.5,73.5C 101.5,74.8333 101.5,76.1667 101.5,77.5C 103.903,77.448 106.236,77.7814 108.5,78.5C 111.377,81.9601 111.044,85.1268 107.5,88C 103.258,89.0769 99.5911,88.2436 96.5,85.5C 96.5,84.1667 96.5,82.8333 96.5,81.5C 99.485,83.4451 102.818,84.4451 106.5,84.5C 106.67,83.1779 106.337,82.0113 105.5,81C 98.2916,81.3016 95.9582,78.135 98.5,71.5C 100.764,70.7814 103.097,70.448 105.5,70.5 Z"/></g>
<g><path style="opacity:1" fill="#c5c4d3" d="M 178.5,68.5 C 179.833,68.5 181.167,68.5 182.5,68.5C 182.215,70.288 182.548,71.9547 183.5,73.5C 187.299,72.2073 190.966,72.2073 194.5,73.5C 190.32,73.1885 186.32,73.8552 182.5,75.5C 183.602,76.1757 184.602,76.8423 185.5,77.5C 184.167,77.5 182.833,77.5 181.5,77.5C 181.5,75.8333 181.5,74.1667 181.5,72.5C 179.219,72.9227 177.552,72.256 176.5,70.5C 178.199,70.6602 179.866,70.4935 181.5,70C 180.263,69.7679 179.263,69.2679 178.5,68.5 Z"/></g>
<g><path style="opacity:1" fill="#0c044d" d="M 151.5,60.5 C 152.391,61.1098 153.391,61.4431 154.5,61.5C 155.899,62.8897 157.566,63.8897 159.5,64.5C 161.833,67.5 164.5,70.1667 167.5,72.5C 170.933,75.6012 173.6,79.2679 175.5,83.5C 175.738,85.4044 176.738,86.7377 178.5,87.5C 178.5,87.8333 178.5,88.1667 178.5,88.5C 178.427,90.0269 179.094,91.0269 180.5,91.5C 182.416,96.6728 183.75,102.006 184.5,107.5C 184.5,112.833 184.5,118.167 184.5,123.5C 183.5,123.5 182.5,123.5 181.5,123.5C 175.932,113.547 167.599,107.214 156.5,104.5C 156.158,103.662 155.492,103.328 154.5,103.5C 152.369,102.686 150.036,102.186 147.5,102C 148.61,98.9509 149.277,95.7842 149.5,92.5C 152.9,81.2277 151.567,70.5611 145.5,60.5C 147.309,59.7093 149.309,59.7093 151.5,60.5 Z"/></g>
<g><path style="opacity:1" fill="#352f5d" d="M 94.5,70.5 C 95.7079,71.2341 97.0413,71.5674 98.5,71.5C 95.9582,78.135 98.2916,81.3016 105.5,81C 106.337,82.0113 106.67,83.1779 106.5,84.5C 102.818,84.4451 99.485,83.4451 96.5,81.5C 96.5,82.8333 96.5,84.1667 96.5,85.5C 95.8333,86.1667 95.1667,86.8333 94.5,87.5C 94.5,82.1667 94.5,76.8333 94.5,71.5C 94.5,71.1667 94.5,70.8333 94.5,70.5 Z"/></g>
<g><path style="opacity:1" fill="#393061" d="M 139.5,73.5 C 138.051,75.1644 136.051,75.9977 133.5,76C 135.058,76.21 136.391,76.71 137.5,77.5C 135.167,77.5 132.833,77.5 130.5,77.5C 130.5,76.1667 130.5,74.8333 130.5,73.5C 133.5,73.5 136.5,73.5 139.5,73.5 Z"/></g>
<g><path style="opacity:1" fill="#4c486c" d="M 38.5,70.5 C 40.0853,71.4737 41.0853,72.9737 41.5,75C 43.5873,75.7922 45.4207,76.9588 47,78.5C 47.6877,79.3317 47.521,79.9984 46.5,80.5C 44.1156,78.9486 41.6156,77.6153 39,76.5C 38.0497,77.0223 37.2164,77.689 36.5,78.5C 36.1667,78 35.8333,77.5 35.5,77C 36.3914,74.7211 37.3914,72.5544 38.5,70.5 Z"/></g>
<g><path style="opacity:1" fill="#433e67" d="M 194.5,73.5 C 193.447,77.9052 191.114,81.5718 187.5,84.5C 188.095,81.9339 187.428,79.6006 185.5,77.5C 184.602,76.8423 183.602,76.1757 182.5,75.5C 186.32,73.8552 190.32,73.1885 194.5,73.5 Z"/></g>
<g><path style="opacity:1" fill="#45406f" d="M 107.5,70.5 C 108.964,71.4054 110.298,71.4054 111.5,70.5C 111.263,71.791 111.596,72.791 112.5,73.5C 113.833,73.5 115.167,73.5 116.5,73.5C 116.181,78.3633 116.514,83.03 117.5,87.5C 117.5,87.8333 117.5,88.1667 117.5,88.5C 115.57,84.6273 114.903,80.294 115.5,75.5C 112.519,75.1824 110.185,76.1824 108.5,78.5C 106.236,77.7814 103.903,77.448 101.5,77.5C 101.5,76.1667 101.5,74.8333 101.5,73.5C 104.421,73.1459 106.754,74.1459 108.5,76.5C 109.77,74.2432 109.436,72.2432 107.5,70.5 Z"/></g>
<g><path style="opacity:1" fill="#b6b3d8" d="M 187.5,75.5 C 188.978,75.238 190.311,75.5713 191.5,76.5C 189.537,79.1939 188.203,78.8606 187.5,75.5 Z"/></g>
<g><path style="opacity:1" fill="#8b87a9" d="M 120.5,73.5 C 120.5,73.8333 120.5,74.1667 120.5,74.5C 120.5,79.1667 120.5,83.8333 120.5,88.5C 119.5,88.5 118.5,88.5 117.5,88.5C 117.5,88.1667 117.5,87.8333 117.5,87.5C 119.138,83.0874 120.138,78.4208 120.5,73.5 Z"/></g>
<g><path style="opacity:1" fill="#46436c" d="M 145.5,68.5 C 146.558,69.6002 147.392,70.9336 148,72.5C 148.816,77.6842 148.65,82.6842 147.5,87.5C 147.848,81.0133 147.182,74.6799 145.5,68.5 Z"/></g>
<g><path style="opacity:1" fill="#f1f1fd" d="M 94.5,71.5 C 94.5,76.8333 94.5,82.1667 94.5,87.5C 93.1883,85.2568 92.5217,82.5902 92.5,79.5C 92.5217,76.4098 93.1883,73.7432 94.5,71.5 Z"/></g>
<g><path style="opacity:1" fill="#b9b7cf" d="M 91.5,70.5 C 92.5,70.5 93.5,70.5 94.5,70.5C 94.5,70.8333 94.5,71.1667 94.5,71.5C 93.1883,73.7432 92.5217,76.4098 92.5,79.5C 92.5217,82.5902 93.1883,85.2568 94.5,87.5C 93.791,88.404 92.791,88.7373 91.5,88.5C 91.5,82.5 91.5,76.5 91.5,70.5 Z"/></g>
<g><path style="opacity:1" fill="#e9e8f7" d="M 124.5,73.5 C 123.167,73.5 121.833,73.5 120.5,73.5C 120.138,78.4208 119.138,83.0874 117.5,87.5C 116.514,83.03 116.181,78.3633 116.5,73.5C 115.167,73.5 113.833,73.5 112.5,73.5C 114.048,72.2057 116.048,71.5391 118.5,71.5C 120.952,71.5391 122.952,72.2057 124.5,73.5 Z"/></g>
<g><path style="opacity:1" fill="#2c2557" d="M 60.5,78.5 C 60.2883,82.2076 58.6217,84.8743 55.5,86.5C 56.1695,83.1511 57.8361,80.4844 60.5,78.5 Z"/></g>
<g><path style="opacity:1" fill="#77719a" d="M 175.5,83.5 C 177.262,84.2623 178.262,85.5956 178.5,87.5C 176.738,86.7377 175.738,85.4044 175.5,83.5 Z"/></g>
<g><path style="opacity:1" fill="#dad9ea" d="M 127.5,71.5 C 131.971,70.9106 135.971,71.5772 139.5,73.5C 136.5,73.5 133.5,73.5 130.5,73.5C 130.5,74.8333 130.5,76.1667 130.5,77.5C 132.833,77.5 135.167,77.5 137.5,77.5C 139.048,77.8212 139.715,78.8212 139.5,80.5C 136.5,80.5 133.5,80.5 130.5,80.5C 130.5,81.8333 130.5,83.1667 130.5,84.5C 133.358,85.166 136.358,85.8326 139.5,86.5C 135.555,87.4909 131.555,87.8242 127.5,87.5C 127.167,87.5 126.833,87.5 126.5,87.5C 126.179,81.9738 126.512,76.6405 127.5,71.5 Z"/></g>
<g><path style="opacity:1" fill="#a9a6c1" d="M 18.5,84.5 C 18.8333,84.5 19.1667,84.5 19.5,84.5C 19.5905,87.1522 18.9238,89.4855 17.5,91.5C 17.6741,89.139 18.0074,86.8056 18.5,84.5 Z"/></g>
<g><path style="opacity:1" fill="#0a024d" d="M 127.5,51.5 C 129.941,51.7499 131.941,52.7499 133.5,54.5C 133.414,55.4959 133.748,56.3292 134.5,57C 132.866,57.4935 131.199,57.6602 129.5,57.5C 128.874,60.3149 127.54,62.8149 125.5,65C 120.798,65.1717 116.132,65.6717 111.5,66.5C 108.241,67.9797 104.908,68.9797 101.5,69.5C 99.9731,69.427 98.9731,70.0937 98.5,71.5C 97.0413,71.5674 95.7079,71.2341 94.5,70.5C 93.5,70.5 92.5,70.5 91.5,70.5C 90.346,76.987 90.1794,83.6536 91,90.5C 93.8479,93.0939 95.8479,92.4272 97,88.5C 100.79,89.1363 104.623,89.803 108.5,90.5C 110.023,93.1884 111.357,93.0218 112.5,90C 112.481,87.0315 112.314,83.8648 112,80.5C 110.417,78.7978 110.917,77.4644 113.5,76.5C 114.492,80.7828 114.826,85.1161 114.5,89.5C 116.582,89.472 118.416,90.1387 120,91.5C 121.255,90.7894 122.421,89.956 123.5,89C 122.205,85.2136 122.205,81.3803 123.5,77.5C 124.167,80.6417 124.834,83.6417 125.5,86.5C 125.5,87.1667 125.833,87.5 126.5,87.5C 127.15,89.4352 127.483,91.4352 127.5,93.5C 132.214,93.1734 136.88,93.5067 141.5,94.5C 142.127,95.4168 142.461,96.4168 142.5,97.5C 141.167,97.5 139.833,97.5 138.5,97.5C 136.49,104.314 131.823,107.48 124.5,107C 126.991,107.626 126.991,108.459 124.5,109.5C 117.831,110.666 111.164,110.666 104.5,109.5C 101.292,108.623 98.2919,107.289 95.5,105.5C 95.1667,104.5 94.5,103.833 93.5,103.5C 93.573,101.973 92.9063,100.973 91.5,100.5C 83.8849,90.168 82.5516,79.168 87.5,67.5C 89.9543,63.43 93.621,61.0967 98.5,60.5C 98.1192,58.0582 98.7859,57.3915 100.5,58.5C 103.464,54.8626 107.131,52.5293 111.5,51.5C 116.777,50.8147 122.111,50.8147 127.5,51.5 Z"/></g>
<g><path style="opacity:1" fill="#8985ab" d="M 130.5,84.5 C 133.833,84.5 137.167,84.5 140.5,84.5C 140.5,85.8333 140.5,87.1667 140.5,88.5C 135.968,88.8182 131.634,88.4849 127.5,87.5C 131.555,87.8242 135.555,87.4909 139.5,86.5C 136.358,85.8326 133.358,85.166 130.5,84.5 Z"/></g>
<g><path style="opacity:1" fill="#494766" d="M 196.5,84.5 C 198.942,84.3537 199.609,85.187 198.5,87C 196.187,87.662 193.854,88.162 191.5,88.5C 192.663,97.4906 191.663,97.6572 188.5,89C 190.94,87.0268 193.606,85.5268 196.5,84.5 Z"/></g>
<g><path style="opacity:1" fill="#5f5d7e" d="M 82.5,72.5 C 82.3357,79.2022 82.669,85.8689 83.5,92.5C 81.9524,88.966 81.2857,85.1327 81.5,81C 81.5022,77.9792 81.8356,75.1459 82.5,72.5 Z"/></g>
<g><path style="opacity:1" fill="#49456a" d="M 38.5,94.5 C 36.1643,93.0309 33.6643,91.6976 31,90.5C 30.6155,88.8034 30.7822,87.1368 31.5,85.5C 31.7826,82.6846 32.7826,82.1846 34.5,84C 33.9706,85.5589 33.304,87.0589 32.5,88.5C 33,88.8333 33.5,89.1667 34,89.5C 35.6143,88.1834 36.7809,86.5167 37.5,84.5C 38.3635,86.7713 38.3635,89.1046 37.5,91.5C 38.675,91.719 39.675,91.3857 40.5,90.5C 41.0831,88.9984 41.9164,87.6651 43,86.5C 42.8471,89.1738 42.3471,91.8405 41.5,94.5C 40.5,94.5 39.5,94.5 38.5,94.5 Z"/></g>
<g><path style="opacity:1" fill="#908dad" d="M 178.5,88.5 C 179.906,88.9731 180.573,89.9731 180.5,91.5C 179.094,91.0269 178.427,90.0269 178.5,88.5 Z"/></g>
<g><path style="opacity:1" fill="#18114d" d="M 91.5,70.5 C 91.5,76.5 91.5,82.5 91.5,88.5C 92.791,88.7373 93.791,88.404 94.5,87.5C 95.1667,86.8333 95.8333,86.1667 96.5,85.5C 99.5911,88.2436 103.258,89.0769 107.5,88C 111.044,85.1268 111.377,81.9601 108.5,78.5C 110.185,76.1824 112.519,75.1824 115.5,75.5C 114.903,80.294 115.57,84.6273 117.5,88.5C 118.5,88.5 119.5,88.5 120.5,88.5C 120.5,83.8333 120.5,79.1667 120.5,74.5C 122.167,74.5 123.833,74.5 125.5,74.5C 125.5,78.5 125.5,82.5 125.5,86.5C 124.834,83.6417 124.167,80.6417 123.5,77.5C 122.205,81.3803 122.205,85.2136 123.5,89C 122.421,89.956 121.255,90.7894 120,91.5C 118.416,90.1387 116.582,89.472 114.5,89.5C 114.826,85.1161 114.492,80.7828 113.5,76.5C 110.917,77.4644 110.417,78.7978 112,80.5C 112.314,83.8648 112.481,87.0315 112.5,90C 111.357,93.0218 110.023,93.1884 108.5,90.5C 104.623,89.803 100.79,89.1363 97,88.5C 95.8479,92.4272 93.8479,93.0939 91,90.5C 90.1794,83.6536 90.346,76.987 91.5,70.5 Z"/></g>
<g><path style="opacity:1" fill="#bdbdd8" d="M 95.5,56.5 C 92.0669,59.6012 89.4002,63.2679 87.5,67.5C 82.5516,79.168 83.8849,90.168 91.5,100.5C 90.2022,99.8843 89.2022,99.8843 88.5,100.5C 88.1667,100.5 87.8333,100.5 87.5,100.5C 86.1473,97.7946 84.8139,95.1279 83.5,92.5C 82.669,85.8689 82.3357,79.2022 82.5,72.5C 83.9892,65.8698 87.3226,60.2031 92.5,55.5C 92.0431,54.7025 91.3764,54.3691 90.5,54.5C 92.0439,53.086 93.7106,52.7526 95.5,53.5C 95.0233,54.4776 94.3567,55.3109 93.5,56C 94.0944,56.4643 94.7611,56.631 95.5,56.5 Z"/></g>
<g><path style="opacity:1" fill="#cfcede" d="M 31.5,85.5 C 30.7822,87.1368 30.6155,88.8034 31,90.5C 33.6643,91.6976 36.1643,93.0309 38.5,94.5C 38.0618,94.4346 37.7284,94.6012 37.5,95C 38.305,96.1127 38.9717,97.2794 39.5,98.5C 35.7848,97.3717 32.1181,97.0384 28.5,97.5C 31.3697,98.2568 34.0364,99.2568 36.5,100.5C 33.5,100.5 30.5,100.5 27.5,100.5C 27.5,98.8333 27.5,97.1667 27.5,95.5C 29.5,95.5 31.5,95.5 33.5,95.5C 33.5,94.5 33.5,93.5 33.5,92.5C 29.7747,92.2204 28.608,90.2204 30,86.5C 30.3826,85.944 30.8826,85.6107 31.5,85.5 Z"/></g>
<g><path style="opacity:1" fill="#08014d" d="M 219.5,63.5 C 225.4,73.3212 229.067,83.9879 230.5,95.5C 230.403,103.184 230.736,110.851 231.5,118.5C 230.773,126.501 230.106,134.501 229.5,142.5C 229.5,142.833 229.5,143.167 229.5,143.5C 228.503,143.47 227.836,143.97 227.5,145C 226.917,147.918 226.084,150.751 225,153.5C 223.989,154.337 222.822,154.67 221.5,154.5C 221.84,157.144 221.173,159.477 219.5,161.5C 220.348,163.409 220.682,165.409 220.5,167.5C 219.25,167.577 218.417,168.244 218,169.5C 217.365,168.034 216.531,166.7 215.5,165.5C 216.718,164.197 216.385,163.197 214.5,162.5C 215.376,161.749 216.376,161.249 217.5,161C 217.014,158.272 217.68,155.605 219.5,153C 217.66,150.174 216.994,147.007 217.5,143.5C 219.124,143.64 220.29,142.973 221,141.5C 221.418,137.822 221.918,134.155 222.5,130.5C 221.907,120.501 221.241,110.501 220.5,100.5C 219.692,96.4113 218.359,92.7446 216.5,89.5C 216.05,85.1998 215.05,81.0332 213.5,77C 213.645,75.7741 213.978,74.6074 214.5,73.5C 211.847,73.5035 210.181,71.8368 209.5,68.5C 210.806,66.0695 211.806,66.4028 212.5,69.5C 213.372,67.5342 213.205,65.5342 212,63.5C 210.927,64.2797 209.76,64.113 208.5,63C 211.915,57.0053 214.749,57.172 217,63.5C 217.77,62.4019 218.603,62.4019 219.5,63.5 Z"/></g>
<g><path style="opacity:1" fill="#484465" d="M 39.5,98.5 C 39.1788,100.048 38.1788,100.715 36.5,100.5C 34.0364,99.2568 31.3697,98.2568 28.5,97.5C 32.1181,97.0384 35.7848,97.3717 39.5,98.5 Z"/></g>
<g><path style="opacity:1" fill="#2a2255" d="M 55.5,86.5 C 55.6602,88.1992 55.4935,89.8659 55,91.5C 53.2602,92.7158 52.2602,94.3825 52,96.5C 51.6667,99.5 51.3333,102.5 51,105.5C 50.3333,106.167 49.6667,106.833 49,107.5C 48.18,114.014 48.3467,120.347 49.5,126.5C 49.8693,128.993 49.2027,129.66 47.5,128.5C 46.0447,120.088 46.3781,111.755 48.5,103.5C 50.0739,101.898 50.7406,99.8984 50.5,97.5C 51.7687,93.5919 53.4353,89.9252 55.5,86.5 Z"/></g>
<g><path style="opacity:1" fill="#7e7c95" d="M 91.5,100.5 C 92.9063,100.973 93.573,101.973 93.5,103.5C 92.0937,103.027 91.427,102.027 91.5,100.5 Z"/></g>
<g><path style="opacity:1" fill="#6d698f" d="M 50.5,97.5 C 50.7406,99.8984 50.0739,101.898 48.5,103.5C 48.2594,101.102 48.9261,99.1016 50.5,97.5 Z"/></g>
<g><path style="opacity:1" fill="#3f386c" d="M 87.5,100.5 C 87.8333,100.5 88.1667,100.5 88.5,100.5C 88.5,100.833 88.5,101.167 88.5,101.5C 84.2853,103.436 79.6186,104.103 74.5,103.5C 79.0937,103.135 83.427,102.135 87.5,100.5 Z"/></g>
<g><path style="opacity:1" fill="#e3e3ee" d="M 91.5,100.5 C 91.427,102.027 92.0937,103.027 93.5,103.5C 94.5,103.833 95.1667,104.5 95.5,105.5C 96.463,106.363 96.463,107.03 95.5,107.5C 93.9291,106.691 92.2624,106.357 90.5,106.5C 89.8333,106.5 89.1667,106.5 88.5,106.5C 85.6946,105.681 82.6946,105.181 79.5,105C 82.8168,104.502 86.1501,104.335 89.5,104.5C 89.7373,103.209 89.404,102.209 88.5,101.5C 88.5,101.167 88.5,100.833 88.5,100.5C 89.2022,99.8843 90.2022,99.8843 91.5,100.5 Z"/></g>
<g><path style="opacity:1" fill="#1d174d" d="M 149.5,92.5 C 149.277,95.7842 148.61,98.9509 147.5,102C 150.036,102.186 152.369,102.686 154.5,103.5C 150.671,104.069 147.337,103.402 144.5,101.5C 145.929,98.3037 147.595,95.3037 149.5,92.5 Z"/></g>
<g><path style="opacity:1" fill="#8482a4" d="M 144.5,101.5 C 147.337,103.402 150.671,104.069 154.5,103.5C 155.492,103.328 156.158,103.662 156.5,104.5C 152.167,104.5 147.833,104.5 143.5,104.5C 143.263,103.209 143.596,102.209 144.5,101.5 Z"/></g>
<g><path style="opacity:1" fill="#6f6d88" d="M 198.5,104.5 C 197.432,105.434 196.099,105.768 194.5,105.5C 194.5,107.833 194.5,110.167 194.5,112.5C 194.5,110.167 194.5,107.833 194.5,105.5C 196.099,105.768 197.432,105.434 198.5,104.5 Z"/></g>
<g><path style="opacity:1" fill="#7e7b99" d="M 199.5,107.5 C 198.5,107.5 197.5,107.5 196.5,107.5C 196.808,109.924 196.474,112.257 195.5,114.5C 194.893,114.376 194.56,114.043 194.5,113.5C 195.468,111.393 195.802,109.059 195.5,106.5C 197.099,106.232 198.432,106.566 199.5,107.5 Z"/></g>
<g><path style="opacity:0.995" fill="#0b023e" d="M 230.5,95.5 C 234.522,111.236 234.188,126.902 229.5,142.5C 230.106,134.501 230.773,126.501 231.5,118.5C 230.736,110.851 230.403,103.184 230.5,95.5 Z"/></g>
<g><path style="opacity:1" fill="#b7b5d0" d="M 88.5,101.5 C 89.404,102.209 89.7373,103.209 89.5,104.5C 86.1501,104.335 82.8168,104.502 79.5,105C 82.6946,105.181 85.6946,105.681 88.5,106.5C 81.6578,106.039 74.9912,106.872 68.5,109C 67.0577,109.377 66.0577,110.21 65.5,111.5C 62.9108,112.419 60.9108,114.086 59.5,116.5C 57.4131,117.585 56.0798,119.251 55.5,121.5C 51.6819,126.757 50.0152,132.757 50.5,139.5C 49.6094,135.851 48.6094,132.184 47.5,128.5C 49.2027,129.66 49.8693,128.993 49.5,126.5C 54.2252,114.961 62.5585,107.295 74.5,103.5C 79.6186,104.103 84.2853,103.436 88.5,101.5 Z"/></g>
<g><path style="opacity:1" fill="#363259" d="M 199.5,107.5 C 198.432,106.566 197.099,106.232 195.5,106.5C 195.802,109.059 195.468,111.393 194.5,113.5C 194.5,113.167 194.5,112.833 194.5,112.5C 194.5,110.167 194.5,107.833 194.5,105.5C 196.099,105.768 197.432,105.434 198.5,104.5C 200.717,103.631 203.05,103.298 205.5,103.5C 205.443,105.884 205.777,108.218 206.5,110.5C 206.167,111.167 205.833,111.833 205.5,112.5C 204.534,110.604 204.201,108.604 204.5,106.5C 203.5,106.5 202.5,106.5 201.5,106.5C 201.799,108.604 201.466,110.604 200.5,112.5C 199.548,110.955 199.215,109.288 199.5,107.5 Z"/></g>
<g><path style="opacity:1" fill="#56526e" d="M 26.5,104.5 C 27.552,104.351 28.552,104.517 29.5,105C 27.3985,106.733 27.0652,108.733 28.5,111C 30.8098,111.497 33.1432,111.663 35.5,111.5C 35.6816,109.409 35.3482,107.409 34.5,105.5C 37.0426,104.422 38.3759,105.422 38.5,108.5C 37.296,114.257 33.9626,115.924 28.5,113.5C 25.4633,111.02 24.7966,108.02 26.5,104.5 Z"/></g>
<g><path style="opacity:1" fill="#251e52" d="M 88.5,106.5 C 89.1667,106.5 89.8333,106.5 90.5,106.5C 90.5,106.833 90.5,107.167 90.5,107.5C 81.7904,107.171 73.4571,108.504 65.5,111.5C 66.0577,110.21 67.0577,109.377 68.5,109C 74.9912,106.872 81.6578,106.039 88.5,106.5 Z"/></g>
<g><path style="opacity:1" fill="#150f4b" d="M 142.5,97.5 C 141.001,100.986 138.667,103.82 135.5,106C 130.883,108.478 126.217,110.645 121.5,112.5C 118.15,112.665 114.817,112.498 111.5,112C 108.809,111.844 106.476,111.011 104.5,109.5C 111.164,110.666 117.831,110.666 124.5,109.5C 126.991,108.459 126.991,107.626 124.5,107C 131.823,107.48 136.49,104.314 138.5,97.5C 139.833,97.5 141.167,97.5 142.5,97.5 Z"/></g>
<g><path style="opacity:1" fill="#0a024c" d="M 90.5,107.5 C 92.4095,108.975 93.5762,110.975 94,113.5C 94.9195,113.93 95.7528,114.264 96.5,114.5C 95.7542,115.736 95.4208,117.07 95.5,118.5C 98.7794,119.031 100.113,121.031 99.5,124.5C 100.5,124.5 101.5,124.5 102.5,124.5C 102.202,121.735 101.202,119.235 99.5,117C 101.167,116.333 102.833,116.333 104.5,117C 106.42,119.464 108.253,121.964 110,124.5C 111.153,131.475 111.987,138.475 112.5,145.5C 111.391,145.443 110.391,145.11 109.5,144.5C 108.5,144.5 107.5,144.5 106.5,144.5C 103.482,144.665 100.482,144.498 97.5,144C 97.8333,143.667 98.1667,143.333 98.5,143C 96.4233,142.808 94.4233,142.308 92.5,141.5C 91.9067,139.618 91.2401,137.785 90.5,136C 90.8333,135.667 91.1667,135.333 91.5,135C 90.6971,130.586 90.1971,126.086 90,121.5C 89.4506,119.24 88.284,117.574 86.5,116.5C 86.5,115.833 86.1667,115.5 85.5,115.5C 85.5852,114.005 84.9185,113.005 83.5,112.5C 81.6911,115.593 80.6911,118.926 80.5,122.5C 79.3263,123.514 78.6596,124.847 78.5,126.5C 77.6733,131.651 77.1733,136.984 77,142.5C 72.1736,143.733 67.007,144.4 61.5,144.5C 60.391,144.443 59.391,144.11 58.5,143.5C 57.791,142.596 56.791,142.263 55.5,142.5C 55.8432,144.483 55.1765,145.817 53.5,146.5C 52.2271,144.287 51.2271,141.954 50.5,139.5C 50.0152,132.757 51.6819,126.757 55.5,121.5C 57.5869,120.415 58.9202,118.749 59.5,116.5C 60.9108,114.086 62.9108,112.419 65.5,111.5C 73.4571,108.504 81.7904,107.171 90.5,107.5 Z"/></g>
<g><path style="opacity:1" fill="#c0bed6" d="M 95.5,105.5 C 98.2919,107.289 101.292,108.623 104.5,109.5C 106.476,111.011 108.809,111.844 111.5,112C 114.817,112.498 118.15,112.665 121.5,112.5C 116.433,113.824 111.266,113.824 106,112.5C 105.833,112.833 105.667,113.167 105.5,113.5C 106.729,114.281 108.062,114.781 109.5,115C 108.244,115.417 107.577,116.25 107.5,117.5C 102.585,112.876 96.918,109.543 90.5,107.5C 90.5,107.167 90.5,106.833 90.5,106.5C 92.2624,106.357 93.9291,106.691 95.5,107.5C 96.463,107.03 96.463,106.363 95.5,105.5 Z"/></g>
<g><path style="opacity:1" fill="#f6f6fa" d="M 121.5,112.5 C 123.781,112.077 125.448,112.744 126.5,114.5C 125.094,114.973 124.427,115.973 124.5,117.5C 122.413,118.585 121.08,120.251 120.5,122.5C 119.094,122.973 118.427,123.973 118.5,125.5C 118.34,127.153 117.674,128.486 116.5,129.5C 115.222,129.218 114.222,128.551 113.5,127.5C 112.687,125.739 111.687,124.072 110.5,122.5C 110.573,120.973 109.906,119.973 108.5,119.5C 108.167,118.833 107.833,118.167 107.5,117.5C 107.577,116.25 108.244,115.417 109.5,115C 108.062,114.781 106.729,114.281 105.5,113.5C 105.667,113.167 105.833,112.833 106,112.5C 111.266,113.824 116.433,113.824 121.5,112.5 Z"/></g>
<g><path style="opacity:1" fill="#413c65" d="M 131.5,111.5 C 129.72,114.29 127.387,116.29 124.5,117.5C 124.427,115.973 125.094,114.973 126.5,114.5C 127.922,113.075 129.589,112.075 131.5,111.5 Z"/></g>
<g><path style="opacity:1" fill="#150e4e" d="M 172.5,116.5 C 172.141,118.766 172.808,120.599 174.5,122C 172.866,122.494 171.199,122.66 169.5,122.5C 169.737,121.209 169.404,120.209 168.5,119.5C 167.469,118.645 166.303,117.978 165,117.5C 164.235,117.57 163.735,117.903 163.5,118.5C 162.5,118.5 161.5,118.5 160.5,118.5C 160.467,113.593 158.134,112.26 153.5,114.5C 151.477,112.827 149.144,112.16 146.5,112.5C 146.5,113.5 146.5,114.5 146.5,115.5C 145.081,116.451 143.415,116.784 141.5,116.5C 141.209,115.351 140.376,114.684 139,114.5C 138.167,114.667 137.333,114.833 136.5,115C 135.594,116.699 135.261,118.533 135.5,120.5C 132.941,120.198 130.607,120.532 128.5,121.5C 127.942,123.789 126.776,125.789 125,127.5C 124.257,129.441 124.424,131.274 125.5,133C 124.584,133.278 123.918,133.778 123.5,134.5C 123.5,136.167 123.5,137.833 123.5,139.5C 124.833,139.5 126.167,139.5 127.5,139.5C 126.658,142.154 126.158,144.821 126,147.5C 127.699,148.406 129.533,148.739 131.5,148.5C 131.5,149.5 131.5,150.5 131.5,151.5C 130.209,152.542 130.209,153.708 131.5,155C 133.066,155.765 134.399,155.598 135.5,154.5C 136.5,154.5 137.5,154.5 138.5,154.5C 138.5,156.167 138.5,157.833 138.5,159.5C 141.144,159.84 143.477,159.173 145.5,157.5C 146.386,158.325 146.719,159.325 146.5,160.5C 148.5,160.5 150.5,160.5 152.5,160.5C 153.779,159.032 155.446,158.365 157.5,158.5C 159.415,158.784 161.081,158.451 162.5,157.5C 163.29,156.391 163.79,155.058 164,153.5C 164.671,152.748 165.504,152.414 166.5,152.5C 168.38,152.771 169.713,152.104 170.5,150.5C 171.1,149.1 172.1,148.1 173.5,147.5C 174.117,147.389 174.617,147.056 175,146.5C 176.411,141.903 177.577,137.237 178.5,132.5C 179.086,132.709 179.586,133.043 180,133.5C 180.497,136.146 180.664,138.813 180.5,141.5C 180.634,143.292 180.301,144.958 179.5,146.5C 177.076,149.008 175.41,152.008 174.5,155.5C 173.094,155.973 172.427,156.973 172.5,158.5C 171.078,159.925 169.411,160.925 167.5,161.5C 164.777,162.352 162.11,163.519 159.5,165C 155,165.5 150.5,166 146,166.5C 141.811,165.91 137.644,165.244 133.5,164.5C 127.948,161.787 123.448,157.787 120,152.5C 119.151,149.479 118.317,146.479 117.5,143.5C 117.181,137.29 117.848,131.29 119.5,125.5C 120.11,124.609 120.443,123.609 120.5,122.5C 122.587,121.415 123.92,119.749 124.5,117.5C 127.387,116.29 129.72,114.29 131.5,111.5C 139.477,106.993 148.144,105.493 157.5,107C 159.845,108.783 162.512,109.783 165.5,110C 167.703,112.372 170.037,114.539 172.5,116.5 Z"/></g>
<g><path style="opacity:1" fill="#b9b7ce" d="M 217.5,96.5 C 219.058,102.922 219.724,109.589 219.5,116.5C 219.499,121.678 219.166,126.678 218.5,131.5C 218.635,119.815 218.302,108.148 217.5,96.5 Z"/></g>
<g><path style="opacity:1" fill="#130c4a" d="M 90.5,107.5 C 96.918,109.543 102.585,112.876 107.5,117.5C 107.833,118.167 108.167,118.833 108.5,119.5C 108.427,121.027 109.094,122.027 110.5,122.5C 111.687,124.072 112.687,125.739 113.5,127.5C 113.823,133.69 113.49,139.69 112.5,145.5C 111.987,138.475 111.153,131.475 110,124.5C 108.253,121.964 106.42,119.464 104.5,117C 102.833,116.333 101.167,116.333 99.5,117C 101.202,119.235 102.202,121.735 102.5,124.5C 101.5,124.5 100.5,124.5 99.5,124.5C 100.113,121.031 98.7794,119.031 95.5,118.5C 95.4208,117.07 95.7542,115.736 96.5,114.5C 95.7528,114.264 94.9195,113.93 94,113.5C 93.5762,110.975 92.4095,108.975 90.5,107.5 Z"/></g>
<g><path style="opacity:1" fill="#f7f6f9" d="M 163.5,118.5 C 163.735,117.903 164.235,117.57 165,117.5C 166.303,117.978 167.469,118.645 168.5,119.5C 168.579,120.93 168.246,122.264 167.5,123.5C 169.078,124.298 170.744,124.798 172.5,125C 173.059,125.725 173.392,126.558 173.5,127.5C 172.349,129.325 171.682,131.325 171.5,133.5C 172.209,134.404 173.209,134.737 174.5,134.5C 174.5,135.833 174.5,137.167 174.5,138.5C 173.5,138.5 172.5,138.5 171.5,138.5C 171.674,140.861 172.007,143.194 172.5,145.5C 171.5,145.5 170.5,145.5 169.5,145.5C 169.629,147.216 169.962,148.883 170.5,150.5C 169.713,152.104 168.38,152.771 166.5,152.5C 165.458,151.209 164.292,151.209 163,152.5C 162.506,154.134 162.34,155.801 162.5,157.5C 161.081,158.451 159.415,158.784 157.5,158.5C 156.365,156.787 154.698,156.12 152.5,156.5C 152.5,157.833 152.5,159.167 152.5,160.5C 150.5,160.5 148.5,160.5 146.5,160.5C 146.719,159.325 146.386,158.325 145.5,157.5C 143.477,159.173 141.144,159.84 138.5,159.5C 138.5,157.833 138.5,156.167 138.5,154.5C 137.5,154.5 136.5,154.5 135.5,154.5C 133.027,154.912 131.694,153.912 131.5,151.5C 131.5,150.5 131.5,149.5 131.5,148.5C 129.533,148.739 127.699,148.406 126,147.5C 126.158,144.821 126.658,142.154 127.5,139.5C 126.167,139.5 124.833,139.5 123.5,139.5C 123.5,137.833 123.5,136.167 123.5,134.5C 124.5,134.5 125.5,134.5 126.5,134.5C 126.167,132.5 125.833,130.5 125.5,128.5C 126.833,128.5 128.167,128.5 129.5,128.5C 129.007,126.194 128.674,123.861 128.5,121.5C 130.827,121.665 132.993,122.331 135,123.5C 136.751,121.51 137.751,119.177 138,116.5C 139.145,115.316 140.312,115.316 141.5,116.5C 143.415,116.784 145.081,116.451 146.5,115.5C 150.394,115.956 154.394,115.956 158.5,115.5C 158.657,119.273 160.324,120.273 163.5,118.5 Z"/></g>
<g><path style="opacity:1" fill="#b4b3ce" d="M 163.5,118.5 C 160.324,120.273 158.657,119.273 158.5,115.5C 154.394,115.956 150.394,115.956 146.5,115.5C 146.5,114.5 146.5,113.5 146.5,112.5C 149.144,112.16 151.477,112.827 153.5,114.5C 158.134,112.26 160.467,113.593 160.5,118.5C 161.5,118.5 162.5,118.5 163.5,118.5 Z"/></g>
<g><path style="opacity:1" fill="#c2c1da" d="M 85.5,115.5 C 84.6236,115.369 83.9569,115.702 83.5,116.5C 82.4805,118.604 81.4805,120.604 80.5,122.5C 80.6911,118.926 81.6911,115.593 83.5,112.5C 84.9185,113.005 85.5852,114.005 85.5,115.5 Z"/></g>
<g><path style="opacity:1" fill="#bdbbd2" d="M 141.5,116.5 C 140.312,115.316 139.145,115.316 138,116.5C 137.751,119.177 136.751,121.51 135,123.5C 132.993,122.331 130.827,121.665 128.5,121.5C 130.607,120.532 132.941,120.198 135.5,120.5C 135.261,118.533 135.594,116.699 136.5,115C 137.333,114.833 138.167,114.667 139,114.5C 140.376,114.684 141.209,115.351 141.5,116.5 Z"/></g>
<g><path style="opacity:1" fill="#4b4770" d="M 124.5,117.5 C 123.92,119.749 122.587,121.415 120.5,122.5C 121.08,120.251 122.413,118.585 124.5,117.5 Z"/></g>
<g><path style="opacity:1" fill="#46406a" d="M 59.5,116.5 C 58.9202,118.749 57.5869,120.415 55.5,121.5C 56.0798,119.251 57.4131,117.585 59.5,116.5 Z"/></g>
<g><path style="opacity:1" fill="#737194" d="M 108.5,119.5 C 109.906,119.973 110.573,120.973 110.5,122.5C 109.094,122.027 108.427,121.027 108.5,119.5 Z"/></g>
<g><path style="opacity:1" fill="#413c61" d="M 206.5,118.5 C 207.66,126.336 204.327,129.336 196.5,127.5C 194.732,124.838 194.065,121.838 194.5,118.5C 198.5,118.5 202.5,118.5 206.5,118.5 Z"/></g>
<g><path style="opacity:1" fill="#e6e5f1" d="M 196.5,120.5 C 199.167,120.5 201.833,120.5 204.5,120.5C 205.245,123.93 203.911,125.597 200.5,125.5C 197.089,125.597 195.755,123.93 196.5,120.5 Z"/></g>
<g><path style="opacity:1" fill="#807f9f" d="M 120.5,122.5 C 120.443,123.609 120.11,124.609 119.5,125.5C 119.167,125.5 118.833,125.5 118.5,125.5C 118.427,123.973 119.094,122.973 120.5,122.5 Z"/></g>
<g><path style="opacity:1" fill="#423e61" d="M 27.5,118.5 C 35.3483,116.963 38.515,119.963 37,127.5C 34.0828,129.393 30.9162,129.893 27.5,129C 24.8685,125.432 24.8685,121.932 27.5,118.5 Z"/></g>
<g><path style="opacity:1" fill="#e7e7f1" d="M 28.5,120.5 C 34.3596,119.074 36.3596,121.074 34.5,126.5C 28.1343,128.801 26.1343,126.801 28.5,120.5 Z"/></g>
<g><path style="opacity:1" fill="#312d56" d="M 184.5,107.5 C 185.165,110.649 185.498,113.982 185.5,117.5C 185.666,122.755 184.999,127.755 183.5,132.5C 183.244,129.402 182.578,126.402 181.5,123.5C 182.5,123.5 183.5,123.5 184.5,123.5C 184.5,118.167 184.5,112.833 184.5,107.5 Z"/></g>
<g><path style="opacity:1" fill="#c7c4d7" d="M 206.5,118.5 C 209.163,127.857 205.83,130.857 196.5,127.5C 204.327,129.336 207.66,126.336 206.5,118.5 Z"/></g>
<g><path style="opacity:1" fill="#4a4471" d="M 151.5,128.5 C 148.422,128.62 145.755,129.62 143.5,131.5C 142.833,131.833 142.167,132.167 141.5,132.5C 142.691,129.126 145.191,127.46 149,127.5C 150.07,127.528 150.903,127.861 151.5,128.5 Z"/></g>
<g><path style="opacity:1" fill="#b0adc4" d="M 128.5,121.5 C 128.674,123.861 129.007,126.194 129.5,128.5C 128.167,128.5 126.833,128.5 125.5,128.5C 125.833,130.5 126.167,132.5 126.5,134.5C 125.5,134.5 124.5,134.5 123.5,134.5C 123.918,133.778 124.584,133.278 125.5,133C 124.424,131.274 124.257,129.441 125,127.5C 126.776,125.789 127.942,123.789 128.5,121.5 Z"/></g>
<g><path style="opacity:1" fill="#1f1952" d="M 172.5,116.5 C 179.674,123.208 182.674,131.541 181.5,141.5C 181.167,141.5 180.833,141.5 180.5,141.5C 180.664,138.813 180.497,136.146 180,133.5C 179.586,133.043 179.086,132.709 178.5,132.5C 177.577,137.237 176.411,141.903 175,146.5C 174.617,147.056 174.117,147.389 173.5,147.5C 175.084,144.864 174.751,142.53 172.5,140.5C 173.325,139.614 174.325,139.281 175.5,139.5C 175.5,137.5 175.5,135.5 175.5,133.5C 174.167,133.5 172.833,133.5 171.5,133.5C 171.682,131.325 172.349,129.325 173.5,127.5C 173.392,126.558 173.059,125.725 172.5,125C 170.744,124.798 169.078,124.298 167.5,123.5C 168.246,122.264 168.579,120.93 168.5,119.5C 169.404,120.209 169.737,121.209 169.5,122.5C 171.199,122.66 172.866,122.494 174.5,122C 172.808,120.599 172.141,118.766 172.5,116.5 Z"/></g>
<g><path style="opacity:1" fill="#625e79" d="M 33.5,134.5 C 38.845,132.67 41.0117,134.67 40,140.5C 39.1739,142.405 38.0072,142.739 36.5,141.5C 37.3094,139.929 37.6427,138.262 37.5,136.5C 37.1583,135.662 36.4916,135.328 35.5,135.5C 35.1583,134.662 34.4916,134.328 33.5,134.5 Z"/></g>
<g><path style="opacity:1" fill="#0a044d" d="M 151.5,128.5 C 154.674,129.01 157.008,130.677 158.5,133.5C 159.143,137.433 158.143,140.766 155.5,143.5C 154.833,143.5 154.167,143.5 153.5,143.5C 143.63,144.962 140.296,140.962 143.5,131.5C 145.755,129.62 148.422,128.62 151.5,128.5 Z"/></g>
<g><path style="opacity:1" fill="#535172" d="M 202.5,136.5 C 200.095,135.232 197.428,134.565 194.5,134.5C 193.832,139.161 195.832,141.161 200.5,140.5C 201.5,140.5 202.5,140.5 203.5,140.5C 203.5,141.5 203.5,142.5 203.5,143.5C 199.941,143.592 196.608,142.759 193.5,141C 192.398,138.599 192.231,136.099 193,133.5C 197.109,132.444 201.275,132.444 205.5,133.5C 205.5,134.5 205.5,135.5 205.5,136.5C 204.5,136.5 203.5,136.5 202.5,136.5 Z"/></g>
<g><path style="opacity:1" fill="#c6c6dd" d="M 202.5,136.5 C 200.076,136.192 197.743,136.526 195.5,137.5C 197.36,138.325 199.026,139.325 200.5,140.5C 195.832,141.161 193.832,139.161 194.5,134.5C 197.428,134.565 200.095,135.232 202.5,136.5 Z"/></g>
<g><path style="opacity:1" fill="#211854" d="M 86.5,116.5 C 88.284,117.574 89.4506,119.24 90,121.5C 90.1971,126.086 90.6971,130.586 91.5,135C 91.1667,135.333 90.8333,135.667 90.5,136C 91.2401,137.785 91.9067,139.618 92.5,141.5C 94.4233,142.308 96.4233,142.808 98.5,143C 98.1667,143.333 97.8333,143.667 97.5,144C 100.482,144.498 103.482,144.665 106.5,144.5C 101.015,145.652 95.3487,145.818 89.5,145C 86.8941,144.55 85.5608,143.05 85.5,140.5C 87.7415,132.622 88.0749,124.622 86.5,116.5 Z"/></g>
<g><path style="opacity:1" fill="#362f60" d="M 118.5,125.5 C 118.833,125.5 119.167,125.5 119.5,125.5C 117.848,131.29 117.181,137.29 117.5,143.5C 116.514,139.03 116.181,134.363 116.5,129.5C 117.674,128.486 118.34,127.153 118.5,125.5 Z"/></g>
<g><path style="opacity:1" fill="#afabcb" d="M 35.5,135.5 C 36.4916,135.328 37.1583,135.662 37.5,136.5C 35.9724,137.802 34.9724,139.469 34.5,141.5C 34.2053,139.265 34.5386,137.265 35.5,135.5 Z"/></g>
<g><path style="opacity:1" fill="#1e174f" d="M 78.5,126.5 C 78.0912,131.692 78.7579,136.692 80.5,141.5C 80.4894,143.017 79.8228,144.184 78.5,145C 72.6513,145.818 66.9846,145.652 61.5,144.5C 67.007,144.4 72.1736,143.733 77,142.5C 77.1733,136.984 77.6733,131.651 78.5,126.5 Z"/></g>
<g><path style="opacity:1" fill="#141045" d="M 18.5,84.5 C 18.0074,86.8056 17.6741,89.139 17.5,91.5C 15.6532,96.5556 14.4865,101.889 14,107.5C 12.9416,127.372 16.4416,146.372 24.5,164.5C 23.5041,164.586 22.6708,164.252 22,163.5C 20.2778,158.389 18.2778,153.389 16,148.5C 15.3333,149.167 14.6667,149.833 14,150.5C 14.0717,147.408 14.2383,144.241 14.5,141C 12.0509,125.642 11.8842,110.142 14,94.5C 15.2121,90.8818 16.7121,87.5485 18.5,84.5 Z"/></g>
<g><path style="opacity:1" fill="#443f62" d="M 33.5,134.5 C 34.4916,134.328 35.1583,134.662 35.5,135.5C 34.5386,137.265 34.2053,139.265 34.5,141.5C 30.7234,144.622 28.3901,143.622 27.5,138.5C 27.4528,137 28.1195,136 29.5,135.5C 30.452,136.533 30.452,137.7 29.5,139C 29.6135,140.28 30.2801,141.113 31.5,141.5C 32.1681,139.031 32.8347,136.698 33.5,134.5 Z"/></g>
<g><path style="opacity:1" fill="#a9a5c0" d="M 158.5,133.5 C 159.634,135.966 159.801,138.633 159,141.5C 158.184,142.823 157.017,143.489 155.5,143.5C 158.143,140.766 159.143,137.433 158.5,133.5 Z"/></g>
<g><path style="opacity:1" fill="#f6f6f9" d="M 85.5,115.5 C 86.1667,115.5 86.5,115.833 86.5,116.5C 88.0749,124.622 87.7415,132.622 85.5,140.5C 84.3054,140.866 83.6387,141.699 83.5,143C 84.6819,144.735 86.3485,145.735 88.5,146C 94.4908,146.499 100.491,146.666 106.5,146.5C 106.5,147.833 106.5,149.167 106.5,150.5C 103.226,154.813 98.8922,157.647 93.5,159C 87.9116,160.289 82.2449,160.789 76.5,160.5C 75.391,160.443 74.391,160.11 73.5,159.5C 71.8984,157.926 69.8984,157.259 67.5,157.5C 66.2905,157.068 65.2905,156.401 64.5,155.5C 63.7377,153.738 62.4044,152.738 60.5,152.5C 60.1667,151.833 59.8333,151.167 59.5,150.5C 59.5,149.167 59.5,147.833 59.5,146.5C 66.5627,147.865 73.5627,147.531 80.5,145.5C 81.7053,144.005 81.7053,142.672 80.5,141.5C 78.7579,136.692 78.0912,131.692 78.5,126.5C 78.6596,124.847 79.3263,123.514 80.5,122.5C 81.4805,120.604 82.4805,118.604 83.5,116.5C 83.9569,115.702 84.6236,115.369 85.5,115.5 Z"/></g>
<g><path style="opacity:1" fill="#221951" d="M 143.5,131.5 C 140.296,140.962 143.63,144.962 153.5,143.5C 146.363,146.779 141.697,144.445 139.5,136.5C 139.668,134.829 140.335,133.496 141.5,132.5C 142.167,132.167 142.833,131.833 143.5,131.5 Z"/></g>
<g><path style="opacity:1" fill="#c2c1d2" d="M 171.5,133.5 C 172.833,133.5 174.167,133.5 175.5,133.5C 175.5,135.5 175.5,137.5 175.5,139.5C 174.325,139.281 173.325,139.614 172.5,140.5C 174.751,142.53 175.084,144.864 173.5,147.5C 172.1,148.1 171.1,149.1 170.5,150.5C 169.962,148.883 169.629,147.216 169.5,145.5C 170.5,145.5 171.5,145.5 172.5,145.5C 172.007,143.194 171.674,140.861 171.5,138.5C 172.5,138.5 173.5,138.5 174.5,138.5C 174.5,137.167 174.5,135.833 174.5,134.5C 173.209,134.737 172.209,134.404 171.5,133.5 Z"/></g>
<g><path style="opacity:1" fill="#d6d5e2" d="M 80.5,141.5 C 81.7053,142.672 81.7053,144.005 80.5,145.5C 73.5627,147.531 66.5627,147.865 59.5,146.5C 59.5,147.833 59.5,149.167 59.5,150.5C 58.1402,148.954 57.1402,147.12 56.5,145C 56.8361,143.97 57.5028,143.47 58.5,143.5C 59.391,144.11 60.391,144.443 61.5,144.5C 66.9846,145.652 72.6513,145.818 78.5,145C 79.8228,144.184 80.4894,143.017 80.5,141.5 Z"/></g>
<g><path style="opacity:1" fill="#c7c7df" d="M 113.5,127.5 C 114.222,128.551 115.222,129.218 116.5,129.5C 116.181,134.363 116.514,139.03 117.5,143.5C 118.317,146.479 119.151,149.479 120,152.5C 123.448,157.787 127.948,161.787 133.5,164.5C 145.122,170.144 156.456,169.478 167.5,162.5C 164.994,164.976 162.994,167.642 161.5,170.5C 155.043,170.307 148.377,170.307 141.5,170.5C 141.167,170.5 140.833,170.5 140.5,170.5C 138.064,169.129 135.397,168.129 132.5,167.5C 127.236,164.901 122.903,161.234 119.5,156.5C 116.835,147.236 114.001,147.236 111,156.5C 107.962,159.369 105.129,162.369 102.5,165.5C 101.508,165.328 100.842,165.662 100.5,166.5C 96.8399,167.993 93.1733,169.327 89.5,170.5C 83.7291,169.887 78.3958,170.554 73.5,172.5C 69.8925,171.535 68.2258,169.202 68.5,165.5C 80.411,170.536 91.411,169.203 101.5,161.5C 107.589,157.758 111.256,152.425 112.5,145.5C 113.49,139.69 113.823,133.69 113.5,127.5 Z"/></g>
<g><path style="opacity:1" fill="#c9c7dc" d="M 85.5,140.5 C 85.5608,143.05 86.8941,144.55 89.5,145C 95.3487,145.818 101.015,145.652 106.5,144.5C 107.5,144.5 108.5,144.5 109.5,144.5C 109.545,147.077 108.545,149.077 106.5,150.5C 106.5,149.167 106.5,147.833 106.5,146.5C 100.491,146.666 94.4908,146.499 88.5,146C 86.3485,145.735 84.6819,144.735 83.5,143C 83.6387,141.699 84.3054,140.866 85.5,140.5 Z"/></g>
<g><path style="opacity:1" fill="#b0aec7" d="M 179.5,146.5 C 179.058,149.343 178.058,152.009 176.5,154.5C 176.043,155.298 175.376,155.631 174.5,155.5C 175.41,152.008 177.076,149.008 179.5,146.5 Z"/></g>
<g><path style="opacity:1" fill="#231c50" d="M 58.5,143.5 C 57.5028,143.47 56.8361,143.97 56.5,145C 57.1402,147.12 58.1402,148.954 59.5,150.5C 59.8333,151.167 60.1667,151.833 60.5,152.5C 61.2623,154.262 62.5956,155.262 64.5,155.5C 65.2905,156.401 66.2905,157.068 67.5,157.5C 68.1667,158.167 68.8333,158.833 69.5,159.5C 66.8205,159.327 64.4872,158.327 62.5,156.5C 61.6143,157.325 61.281,158.325 61.5,159.5C 58.5968,155.37 55.9301,151.037 53.5,146.5C 55.1765,145.817 55.8432,144.483 55.5,142.5C 56.791,142.263 57.791,142.596 58.5,143.5 Z"/></g>
<g><path style="opacity:1" fill="#8c8ba9" d="M 60.5,152.5 C 62.4044,152.738 63.7377,153.738 64.5,155.5C 62.5956,155.262 61.2623,154.262 60.5,152.5 Z"/></g>
<g><path style="opacity:1" fill="#aba9d0" d="M 131.5,151.5 C 131.694,153.912 133.027,154.912 135.5,154.5C 134.399,155.598 133.066,155.765 131.5,155C 130.209,153.708 130.209,152.542 131.5,151.5 Z"/></g>
<g><path style="opacity:1" fill="#484565" d="M 189.5,146.5 C 198.299,145.768 200.965,149.268 197.5,157C 196.365,157.749 195.365,157.583 194.5,156.5C 196.031,155.387 197.031,153.887 197.5,152C 196.246,148.797 193.913,147.797 190.5,149C 189.253,150.458 189.253,151.958 190.5,153.5C 189.726,154.711 188.893,154.711 188,153.5C 187.167,150.829 187.667,148.496 189.5,146.5 Z"/></g>
<g><path style="opacity:1" fill="#83809c" d="M 166.5,152.5 C 165.504,152.414 164.671,152.748 164,153.5C 163.79,155.058 163.29,156.391 162.5,157.5C 162.34,155.801 162.506,154.134 163,152.5C 164.292,151.209 165.458,151.209 166.5,152.5 Z"/></g>
<g><path style="opacity:1" fill="#251e56" d="M 109.5,144.5 C 110.391,145.11 111.391,145.443 112.5,145.5C 111.256,152.425 107.589,157.758 101.5,161.5C 100.264,157.879 98.2641,157.545 95.5,160.5C 89.0117,161.817 82.6783,161.817 76.5,160.5C 82.2449,160.789 87.9116,160.289 93.5,159C 98.8922,157.647 103.226,154.813 106.5,150.5C 108.545,149.077 109.545,147.077 109.5,144.5 Z"/></g>
<g><path style="opacity:1" fill="#0c0542" d="M 229.5,143.5 C 227.66,152.029 224.66,160.029 220.5,167.5C 220.682,165.409 220.348,163.409 219.5,161.5C 221.173,159.477 221.84,157.144 221.5,154.5C 222.822,154.67 223.989,154.337 225,153.5C 226.084,150.751 226.917,147.918 227.5,145C 227.836,143.97 228.503,143.47 229.5,143.5 Z"/></g>
<g><path style="opacity:1" fill="#1d174f" d="M 119.5,156.5 C 117.362,156.703 115.695,157.703 114.5,159.5C 113.742,158.189 112.742,157.689 111.5,158C 110.043,162.325 107.043,164.825 102.5,165.5C 105.129,162.369 107.962,159.369 111,156.5C 114.001,147.236 116.835,147.236 119.5,156.5 Z"/></g>
<g><path style="opacity:1" fill="#b8b6d1" d="M 43.5,162.5 C 42.0101,164.28 40.0101,164.946 37.5,164.5C 37.5,162.5 37.5,160.5 37.5,158.5C 36.0222,158.762 34.6888,158.429 33.5,157.5C 33.6236,156.893 33.9569,156.56 34.5,156.5C 34.7352,157.097 35.2352,157.43 36,157.5C 37.6565,156.516 39.3232,155.516 41,154.5C 40.048,157.358 39.2147,160.358 38.5,163.5C 40.2161,163.371 41.8828,163.038 43.5,162.5 Z"/></g>
<g><path style="opacity:1" fill="#0b034c" d="M 119.5,156.5 C 122.903,161.234 127.236,164.901 132.5,167.5C 134.617,169.655 137.284,170.655 140.5,170.5C 140.833,170.5 141.167,170.5 141.5,170.5C 147.077,170.856 152.41,171.856 157.5,173.5C 153.809,175.541 150.142,177.541 146.5,179.5C 141.989,180.931 137.655,182.598 133.5,184.5C 131.565,185.15 129.565,185.483 127.5,185.5C 118.815,185.536 110.149,185.203 101.5,184.5C 100.833,184.5 100.167,184.5 99.5,184.5C 97.8984,182.926 95.8984,182.259 93.5,182.5C 91.6854,181.37 89.6854,180.704 87.5,180.5C 85.8185,178.992 83.8185,177.992 81.5,177.5C 78.9906,176.079 76.6572,174.412 74.5,172.5C 79.3054,171.513 84.3054,171.179 89.5,171.5C 92.6074,171.649 95.6074,171.149 98.5,170C 99.9733,169.29 100.64,168.124 100.5,166.5C 100.842,165.662 101.508,165.328 102.5,165.5C 107.043,164.825 110.043,162.325 111.5,158C 112.742,157.689 113.742,158.189 114.5,159.5C 115.695,157.703 117.362,156.703 119.5,156.5 Z"/></g>
<g><path style="opacity:1" fill="#9291ac" d="M 174.5,155.5 C 174.573,157.027 173.906,158.027 172.5,158.5C 172.427,156.973 173.094,155.973 174.5,155.5 Z"/></g>
<g><path style="opacity:1" fill="#9291ae" d="M 67.5,157.5 C 69.8984,157.259 71.8984,157.926 73.5,159.5C 72.1667,159.5 70.8333,159.5 69.5,159.5C 68.8333,158.833 68.1667,158.167 67.5,157.5 Z"/></g>
<g><path style="opacity:1" fill="#403b61" d="M 157.5,158.5 C 155.446,158.365 153.779,159.032 152.5,160.5C 152.5,159.167 152.5,157.833 152.5,156.5C 154.698,156.12 156.365,156.787 157.5,158.5 Z"/></g>
<g><path style="opacity:1" fill="#3c3860" d="M 43.5,162.5 C 41.8828,163.038 40.2161,163.371 38.5,163.5C 39.2147,160.358 40.048,157.358 41,154.5C 39.3232,155.516 37.6565,156.516 36,157.5C 35.2352,157.43 34.7352,157.097 34.5,156.5C 37.6448,153.887 41.3114,152.221 45.5,151.5C 44.7263,154.381 43.3929,157.048 41.5,159.5C 41.8333,159.833 42.1667,160.167 42.5,160.5C 44.3159,158.559 46.3159,157.892 48.5,158.5C 46.9853,160.082 45.3186,161.416 43.5,162.5 Z"/></g>
<g><path style="opacity:1" fill="#9491af" d="M 172.5,158.5 C 172.033,161.297 170.367,162.631 167.5,162.5C 167.5,162.167 167.5,161.833 167.5,161.5C 169.411,160.925 171.078,159.925 172.5,158.5 Z"/></g>
<g><path style="opacity:1" fill="#0d064a" d="M 216.5,89.5 C 218.359,92.7446 219.692,96.4113 220.5,100.5C 221.241,110.501 221.907,120.501 222.5,130.5C 221.918,134.155 221.418,137.822 221,141.5C 220.29,142.973 219.124,143.64 217.5,143.5C 216.994,147.007 217.66,150.174 219.5,153C 217.68,155.605 217.014,158.272 217.5,161C 216.376,161.249 215.376,161.749 214.5,162.5C 216.385,163.197 216.718,164.197 215.5,165.5C 216.531,166.7 217.365,168.034 218,169.5C 218.417,168.244 219.25,167.577 220.5,167.5C 210.323,188.01 195.323,204.01 175.5,215.5C 173.529,213.56 171.196,211.893 168.5,210.5C 171.202,209.928 173.869,209.594 176.5,209.5C 177.524,210.853 178.857,211.52 180.5,211.5C 181.138,209.54 181.138,207.707 180.5,206C 182.379,204.556 184.045,205.056 185.5,207.5C 186.257,204.385 184.923,202.385 181.5,201.5C 179.668,202.821 177.668,203.821 175.5,204.5C 176.771,202.066 178.771,200.566 181.5,200C 182.386,198.385 183.386,196.885 184.5,195.5C 192.224,187.682 199.224,179.349 205.5,170.5C 207.245,168.967 208.245,166.967 208.5,164.5C 214.144,154.273 217.477,143.273 218.5,131.5C 219.166,126.678 219.499,121.678 219.5,116.5C 219.724,109.589 219.058,102.922 217.5,96.5C 217.007,94.1944 216.674,91.861 216.5,89.5 Z"/></g>
<g><path style="opacity:1" fill="#150e4e" d="M 69.5,159.5 C 70.8333,159.5 72.1667,159.5 73.5,159.5C 74.391,160.11 75.391,160.443 76.5,160.5C 82.6783,161.817 89.0117,161.817 95.5,160.5C 98.2641,157.545 100.264,157.879 101.5,161.5C 91.411,169.203 80.411,170.536 68.5,165.5C 65.5677,164.2 63.2344,162.2 61.5,159.5C 61.281,158.325 61.6143,157.325 62.5,156.5C 64.4872,158.327 66.8205,159.327 69.5,159.5 Z"/></g>
<g><path style="opacity:1" fill="#211a52" d="M 167.5,161.5 C 167.5,161.833 167.5,162.167 167.5,162.5C 156.456,169.478 145.122,170.144 133.5,164.5C 137.644,165.244 141.811,165.91 146,166.5C 150.5,166 155,165.5 159.5,165C 162.11,163.519 164.777,162.352 167.5,161.5 Z"/></g>
<g><path style="opacity:1" fill="#444168" d="M 184.5,157.5 C 186.853,159.101 189.02,161.101 191,163.5C 191.494,165.134 191.66,166.801 191.5,168.5C 187.194,168.508 183.194,167.508 179.5,165.5C 183.689,164.463 185.355,161.796 184.5,157.5 Z"/></g>
<g><path style="opacity:1" fill="#7c7b9c" d="M 51.5,165.5 C 51.4326,166.959 51.7659,168.292 52.5,169.5C 51.4928,170.828 50.1595,171.828 48.5,172.5C 48.1667,172.167 47.8333,171.833 47.5,171.5C 48.5005,169.187 49.8338,167.187 51.5,165.5 Z"/></g>
<g><path style="opacity:1" fill="#524d77" d="M 132.5,167.5 C 135.397,168.129 138.064,169.129 140.5,170.5C 137.284,170.655 134.617,169.655 132.5,167.5 Z"/></g>
<g><path style="opacity:1" fill="#292356" d="M 100.5,166.5 C 100.64,168.124 99.9733,169.29 98.5,170C 95.6074,171.149 92.6074,171.649 89.5,171.5C 89.5,171.167 89.5,170.833 89.5,170.5C 93.1733,169.327 96.8399,167.993 100.5,166.5 Z"/></g>
<g><path style="opacity:1" fill="#5f5b7e" d="M 208.5,164.5 C 208.245,166.967 207.245,168.967 205.5,170.5C 205.755,168.033 206.755,166.033 208.5,164.5 Z"/></g>
<g><path style="opacity:1" fill="#4f4f71" d="M 89.5,170.5 C 89.5,170.833 89.5,171.167 89.5,171.5C 84.3054,171.179 79.3054,171.513 74.5,172.5C 74.1667,172.5 73.8333,172.5 73.5,172.5C 78.3958,170.554 83.7291,169.887 89.5,170.5 Z"/></g>
<g><path style="opacity:1" fill="#514f74" d="M 161.5,170.5 C 160.167,171.5 158.833,172.5 157.5,173.5C 152.41,171.856 147.077,170.856 141.5,170.5C 148.377,170.307 155.043,170.307 161.5,170.5 Z"/></g>
<g><path style="opacity:1" fill="#443f68" d="M 51.5,165.5 C 49.8338,167.187 48.5005,169.187 47.5,171.5C 47.8333,171.833 48.1667,172.167 48.5,172.5C 50.1595,171.828 51.4928,170.828 52.5,169.5C 54.1667,169.5 55.8333,169.5 57.5,169.5C 57.4226,170.75 56.756,171.583 55.5,172C 51.9591,173.44 48.2924,174.274 44.5,174.5C 44.5,173.5 44.5,172.5 44.5,171.5C 45.9447,168.882 47.6113,166.382 49.5,164C 50.816,163.472 51.4827,163.972 51.5,165.5 Z"/></g>
<g><path style="opacity:1" fill="#4c496a" d="M 173.5,170.5 C 176.225,171.713 178.559,173.546 180.5,176C 181.899,176.595 183.232,176.428 184.5,175.5C 185.521,176.002 185.688,176.668 185,177.5C 182.991,179.01 181.158,180.677 179.5,182.5C 180.226,178.475 178.559,175.475 174.5,173.5C 173.614,172.675 173.281,171.675 173.5,170.5 Z"/></g>
<g><path style="opacity:1" fill="#e4e4ee" d="M 57.5,169.5 C 58.404,170.209 58.7373,171.209 58.5,172.5C 59.5,172.5 60.5,172.5 61.5,172.5C 61.7394,174.467 61.4061,176.301 60.5,178C 63.0356,178.186 65.369,178.686 67.5,179.5C 64.2118,179.016 61.5452,180.016 59.5,182.5C 59.7678,180.901 59.4345,179.568 58.5,178.5C 54.3118,186.771 50.9784,186.438 48.5,177.5C 46.9547,176.548 45.288,176.215 43.5,176.5C 43.2155,174.585 43.5489,172.919 44.5,171.5C 44.5,172.5 44.5,173.5 44.5,174.5C 48.2924,174.274 51.9591,173.44 55.5,172C 56.756,171.583 57.4226,170.75 57.5,169.5 Z"/></g>
<g><path style="opacity:1" fill="#b2afc9" d="M 157.5,173.5 C 154.795,177.193 151.128,179.193 146.5,179.5C 150.142,177.541 153.809,175.541 157.5,173.5 Z"/></g>
<g><path style="opacity:1" fill="#2c2558" d="M 30.5,174.5 C 36.8625,181.859 43.1958,189.192 49.5,196.5C 48.0222,196.762 46.6888,196.429 45.5,195.5C 42.5519,189.552 38.2185,184.885 32.5,181.5C 31.6751,179.199 31.0084,176.865 30.5,174.5 Z"/></g>
<g><path style="opacity:1" fill="#3e3b5e" d="M 58.5,178.5 C 57.0384,179.458 55.7051,180.624 54.5,182C 53.6683,182.688 53.0016,182.521 52.5,181.5C 54.1667,179.5 55.8333,177.5 57.5,175.5C 58.6086,174.41 59.6086,174.41 60.5,175.5C 59.8075,176.518 59.1408,177.518 58.5,178.5 Z"/></g>
<g><path style="opacity:1" fill="#afadc8" d="M 81.5,177.5 C 83.8185,177.992 85.8185,178.992 87.5,180.5C 84.6798,180.913 82.6798,179.913 81.5,177.5 Z"/></g>
<g><path style="opacity:1" fill="#464264" d="M 167.5,177.5 C 171.938,179.227 174.272,182.227 174.5,186.5C 171.435,184.021 169.102,181.021 167.5,177.5 Z"/></g>
<g><path style="opacity:1" fill="#9693b1" d="M 146.5,179.5 C 142.797,182.517 138.464,184.184 133.5,184.5C 137.655,182.598 141.989,180.931 146.5,179.5 Z"/></g>
<g><path style="opacity:1" fill="#5c5783" d="M 93.5,182.5 C 95.8984,182.259 97.8984,182.926 99.5,184.5C 97.1016,184.741 95.1016,184.074 93.5,182.5 Z"/></g>
<g><path style="opacity:1" fill="#413e5e" d="M 159.5,182.5 C 165.653,182.484 168.486,185.484 168,191.5C 164.952,195.01 161.619,195.343 158,192.5C 155.729,188.697 156.229,185.363 159.5,182.5 Z"/></g>
<g><path style="opacity:1" fill="#524d79" d="M 101.5,184.5 C 110.149,185.203 118.815,185.536 127.5,185.5C 124.351,186.165 121.018,186.498 117.5,186.5C 111.923,186.632 106.59,185.965 101.5,184.5 Z"/></g>
<g><path style="opacity:1" fill="#ebe9f4" d="M 159.5,184.5 C 164.984,184.481 166.65,186.981 164.5,192C 158.785,192.401 157.119,189.901 159.5,184.5 Z"/></g>
<g><path style="opacity:1" fill="#2b2454" d="M 75.5,187.5 C 76.5862,187.62 77.2528,188.287 77.5,189.5C 77.4573,190.416 77.1239,191.083 76.5,191.5C 75.6726,190.561 75.0059,190.895 74.5,192.5C 73.6618,192.158 73.3284,191.492 73.5,190.5C 73.9321,189.29 74.5987,188.29 75.5,187.5 Z"/></g>
<g><path style="opacity:1" fill="#444163" d="M 67.5,179.5 C 69.118,180.451 70.4513,181.784 71.5,183.5C 69.5179,186.81 67.1846,189.81 64.5,192.5C 60.1905,190.548 58.5239,187.215 59.5,182.5C 61.5452,180.016 64.2118,179.016 67.5,179.5 Z"/></g>
<g><path style="opacity:1" fill="#e0e0ee" d="M 63.5,181.5 C 65.9484,181.01 67.615,181.843 68.5,184C 67.3677,186.133 65.8677,187.966 64,189.5C 60.8696,187.182 60.7029,184.515 63.5,181.5 Z"/></g>
<g><path style="opacity:1" fill="#716e8f" d="M 80.5,192.5 C 80.0533,195.524 79.22,195.857 78,193.5C 77.5045,195.473 77.3379,197.473 77.5,199.5C 76.5269,197.052 76.1936,194.385 76.5,191.5C 77.1239,191.083 77.4573,190.416 77.5,189.5C 77.2528,188.287 76.5862,187.62 75.5,187.5C 75.5173,185.972 76.184,185.472 77.5,186C 77.9496,188.533 78.9496,190.7 80.5,192.5 Z"/></g>
<g><path style="opacity:1" fill="#5b5870" d="M 73.5,190.5 C 73.3284,191.492 73.6618,192.158 74.5,192.5C 73.928,193.973 73.0946,195.307 72,196.5C 71.5357,195.906 71.369,195.239 71.5,194.5C 71.2291,192.62 71.8958,191.287 73.5,190.5 Z"/></g>
<g><path style="opacity:1" fill="#cfcee0" d="M 76.5,191.5 C 76.1936,194.385 76.5269,197.052 77.5,199.5C 78.609,199.443 79.609,199.11 80.5,198.5C 79.4479,200.256 77.7812,200.923 75.5,200.5C 75.6567,199.127 75.49,197.793 75,196.5C 73.6439,197.38 72.1439,197.714 70.5,197.5C 70.2627,196.209 70.596,195.209 71.5,194.5C 71.369,195.239 71.5357,195.906 72,196.5C 73.0946,195.307 73.928,193.973 74.5,192.5C 75.0059,190.895 75.6726,190.561 76.5,191.5 Z"/></g>
<g><path style="opacity:1" fill="#353151" d="M 80.5,198.5 C 79.609,199.11 78.609,199.443 77.5,199.5C 77.3379,197.473 77.5045,195.473 78,193.5C 79.22,195.857 80.0533,195.524 80.5,192.5C 81.0746,189.985 82.0746,189.485 83.5,191C 82.3487,193.465 81.3487,195.965 80.5,198.5 Z"/></g>
<g><path style="opacity:1" fill="#3f3a61" d="M 151.5,199.5 C 150.594,198.035 149.261,197.035 147.5,196.5C 147.245,198.343 147.078,200.343 147,202.5C 146.617,201.944 146.117,201.611 145.5,201.5C 144.885,197.992 143.885,194.659 142.5,191.5C 145.809,192.242 148.643,193.909 151,196.5C 151.429,194.331 150.929,192.331 149.5,190.5C 150.002,189.479 150.668,189.312 151.5,190C 153.404,192.877 154.404,196.044 154.5,199.5C 153.5,199.5 152.5,199.5 151.5,199.5 Z"/></g>
<g><path style="opacity:1" fill="#afadca" d="M 51.5,196.5 C 53.7488,197.08 55.4154,198.413 56.5,200.5C 54.2512,199.92 52.5846,198.587 51.5,196.5 Z"/></g>
<g><path style="opacity:1" fill="#413b60" d="M 87.5,191.5 C 88.5862,191.62 89.2528,192.287 89.5,193.5C 88.3613,196.917 87.028,200.25 85.5,203.5C 85.1667,202.833 84.8333,202.167 84.5,201.5C 86.0911,198.325 87.0911,194.991 87.5,191.5 Z"/></g>
<g><path style="opacity:1" fill="#c0bdd5" d="M 151.5,199.5 C 150.504,199.586 149.671,199.252 149,198.5C 148.506,200.134 148.34,201.801 148.5,203.5C 146.821,203.715 145.821,203.048 145.5,201.5C 146.117,201.611 146.617,201.944 147,202.5C 147.078,200.343 147.245,198.343 147.5,196.5C 149.261,197.035 150.594,198.035 151.5,199.5 Z"/></g>
<g><path style="opacity:1" fill="#383062" d="M 184.5,195.5 C 183.386,196.885 182.386,198.385 181.5,200C 178.771,200.566 176.771,202.066 175.5,204.5C 174.167,204.5 172.833,204.5 171.5,204.5C 175.532,201.147 179.865,198.147 184.5,195.5 Z"/></g>
<g><path style="opacity:1" fill="#9591b1" d="M 62.5,204.5 C 64.0269,204.427 65.0269,205.094 65.5,206.5C 63.9731,206.573 62.9731,205.906 62.5,204.5 Z"/></g>
<g><path style="opacity:1" fill="#aba9c1" d="M 75.5,211.5 C 77.8984,211.259 79.8984,211.926 81.5,213.5C 79.1016,213.741 77.1016,213.074 75.5,211.5 Z"/></g>
<g><path style="opacity:1" fill="#554f78" d="M 153.5,213.5 C 150.916,215.472 147.916,216.472 144.5,216.5C 147.145,214.69 150.145,213.69 153.5,213.5 Z"/></g>
<g><path style="opacity:1" fill="#231b54" d="M 67.5,208.5 C 70.5351,208.539 73.2018,209.539 75.5,211.5C 77.1016,213.074 79.1016,213.741 81.5,213.5C 83.1016,215.074 85.1016,215.741 87.5,215.5C 89.1016,217.074 91.1016,217.741 93.5,217.5C 94.1667,217.5 94.8333,217.5 95.5,217.5C 97.1667,218.167 98.8333,218.833 100.5,219.5C 89.1126,219.023 78.446,216.023 68.5,210.5C 67.7025,210.043 67.3691,209.376 67.5,208.5 Z"/></g>
<g><path style="opacity:1" fill="#2b2259" d="M 171.5,204.5 C 169.297,207 166.963,209.333 164.5,211.5C 156.739,215.254 148.572,217.92 140,219.5C 126.678,220.777 113.511,220.777 100.5,219.5C 112.859,219.728 125.193,219.395 137.5,218.5C 139.698,218.88 141.365,218.213 142.5,216.5C 143.167,216.5 143.833,216.5 144.5,216.5C 147.916,216.472 150.916,215.472 153.5,213.5C 159.761,211.036 165.761,208.036 171.5,204.5 Z"/></g>
<g><path style="opacity:1" fill="#9c99b7" d="M 87.5,215.5 C 89.8984,215.259 91.8984,215.926 93.5,217.5C 91.1016,217.741 89.1016,217.074 87.5,215.5 Z"/></g>
<g><path style="opacity:1" fill="#5f597e" d="M 142.5,216.5 C 141.365,218.213 139.698,218.88 137.5,218.5C 137.5,218.167 137.5,217.833 137.5,217.5C 139.042,216.699 140.708,216.366 142.5,216.5 Z"/></g>
<g><path style="opacity:1" fill="#c7c4db" d="M 95.5,217.5 C 109.504,218.786 123.504,218.786 137.5,217.5C 137.5,217.833 137.5,218.167 137.5,218.5C 125.193,219.395 112.859,219.728 100.5,219.5C 98.8333,218.833 97.1667,218.167 95.5,217.5 Z"/></g>
</svg>
